<svg width="505" height="188" viewBox="0 0 505 188" fill="none" xmlns="http://www.w3.org/2000/svg">
<path d="M31.75 35.3C31.15 35.7 30.3333 36.15 29.3 36.65C28.2667 37.15 27.05 37.5667 25.65 37.9C24.2833 38.2333 22.7833 38.4 21.15 38.4C18.35 38.3667 15.8167 37.8667 13.55 36.9C11.3167 35.9333 9.41667 34.6167 7.85 32.95C6.28333 31.2833 5.06667 29.3667 4.2 27.2C3.36667 25 2.95 22.6667 2.95 20.2C2.95 17.5 3.38333 15.0167 4.25 12.75C5.15 10.45 6.4 8.46667 8 6.8C9.6 5.1 11.4833 3.78333 13.65 2.85C15.85 1.91667 18.25 1.45 20.85 1.45C23.0167 1.45 24.9833 1.75 26.75 2.35C28.5167 2.91666 30.0333 3.6 31.3 4.4L29.35 8.9C28.35 8.23333 27.1333 7.6 25.7 7C24.3 6.4 22.7333 6.1 21 6.1C19.2333 6.1 17.5667 6.45 16 7.15C14.4333 7.85 13.05 8.83333 11.85 10.1C10.65 11.3667 9.7 12.85 9 14.55C8.33333 16.2167 8 18.0167 8 19.95C8 21.9167 8.3 23.75 8.9 25.45C9.53333 27.1167 10.4167 28.5667 11.55 29.8C12.7167 31.0333 14.1167 32 15.75 32.7C17.3833 33.4 19.2167 33.75 21.25 33.75C23.0833 33.75 24.7167 33.4667 26.15 32.9C27.5833 32.3333 28.7667 31.7 29.7 31L31.75 35.3ZM47.3668 38.5C45.4335 38.5 43.6668 38.0833 42.0668 37.25C40.5001 36.4167 39.2501 35.2 38.3168 33.6C37.4168 31.9667 36.9668 29.9833 36.9668 27.65C36.9668 25.35 37.4501 23.3667 38.4168 21.7C39.3835 20 40.6668 18.7 42.2668 17.8C43.9001 16.9 45.6835 16.45 47.6168 16.45C49.5501 16.45 51.1835 16.9 52.5168 17.8C53.8501 18.6667 54.8668 19.7 55.5668 20.9L55.2668 21.7L55.7168 17.3H60.0168V38H55.3668V32.6L55.8668 33.8C55.7335 34.1333 55.4335 34.5667 54.9668 35.1C54.5335 35.6 53.9335 36.1167 53.1668 36.65C52.4335 37.1833 51.5835 37.6333 50.6168 38C49.6501 38.3333 48.5668 38.5 47.3668 38.5ZM48.6168 34.65C49.7835 34.65 50.8335 34.4333 51.7668 34C52.7001 33.5667 53.4668 32.9667 54.0668 32.2C54.7001 31.4 55.1335 30.45 55.3668 29.35V25.3C55.1001 24.3 54.6335 23.4333 53.9668 22.7C53.3001 21.9333 52.5001 21.35 51.5668 20.95C50.6335 20.5167 49.6001 20.3 48.4668 20.3C47.2335 20.3 46.1001 20.6 45.0668 21.2C44.0335 21.8 43.2001 22.6333 42.5668 23.7C41.9668 24.7667 41.6668 26.0167 41.6668 27.45C41.6668 28.7833 41.9835 30 42.6168 31.1C43.2501 32.2 44.1001 33.0667 45.1668 33.7C46.2335 34.3333 47.3835 34.65 48.6168 34.65ZM72.2137 17.3L72.6637 23.3L72.4137 22.5C72.947 21.2333 73.7137 20.1667 74.7137 19.3C75.747 18.4 76.8137 17.7167 77.9137 17.25C79.047 16.75 80.0303 16.5 80.8637 16.5L80.6137 21.1C79.047 21 77.6637 21.3 76.4637 22C75.297 22.7 74.3637 23.6333 73.6637 24.8C72.997 25.9667 72.6637 27.2167 72.6637 28.55V38H68.0637V17.3H72.2137ZM99.0625 38.5C97.4958 38.5 95.9792 38.1333 94.5125 37.4C93.0792 36.6667 91.9625 35.6833 91.1625 34.45L91.4625 33V47.95H86.8625V17H90.8625L91.5125 22.3L91.0125 20.85C92.0125 19.5833 93.2792 18.5333 94.8125 17.7C96.3458 16.8667 98.0625 16.45 99.9625 16.45C101.896 16.45 103.629 16.9167 105.163 17.85C106.729 18.7833 107.963 20.0833 108.863 21.75C109.763 23.4167 110.213 25.3667 110.213 27.6C110.213 29.8333 109.729 31.7667 108.763 33.4C107.796 35.0333 106.463 36.3 104.763 37.2C103.096 38.0667 101.196 38.5 99.0625 38.5ZM98.1625 34.8C99.4958 34.8 100.713 34.5 101.813 33.9C102.946 33.2667 103.846 32.4167 104.513 31.35C105.179 30.25 105.513 29.0167 105.513 27.65C105.513 26.25 105.196 25.0167 104.563 23.95C103.929 22.85 103.079 21.9833 102.013 21.35C100.979 20.7167 99.8125 20.4 98.5125 20.4C97.3125 20.4 96.2292 20.6333 95.2625 21.1C94.2958 21.5667 93.4958 22.2167 92.8625 23.05C92.2292 23.85 91.7792 24.7833 91.5125 25.85V29.3C91.6792 30.3667 92.0792 31.3167 92.7125 32.15C93.3458 32.9833 94.1292 33.6333 95.0625 34.1C96.0292 34.5667 97.0625 34.8 98.1625 34.8ZM116.501 17.3H121.151V38H116.501V17.3ZM116.151 9.8C116.151 9.06667 116.435 8.45 117.001 7.95C117.601 7.45 118.251 7.2 118.951 7.2C119.651 7.2 120.268 7.45 120.801 7.95C121.368 8.45 121.651 9.06667 121.651 9.8C121.651 10.5667 121.368 11.2 120.801 11.7C120.268 12.1667 119.651 12.4 118.951 12.4C118.251 12.4 117.601 12.15 117.001 11.65C116.435 11.15 116.151 10.5333 116.151 9.8ZM133.346 17.3L133.746 22.35L133.546 21.55C134.213 20.0167 135.296 18.8 136.796 17.9C138.296 16.9667 140.03 16.5 141.996 16.5C143.963 16.5 145.563 17.0833 146.796 18.25C148.063 19.3833 148.713 20.8667 148.746 22.7V38H144.046V24.35C144.013 23.2167 143.68 22.3 143.046 21.6C142.446 20.8667 141.496 20.5 140.196 20.5C138.996 20.5 137.913 20.8333 136.946 21.5C135.98 22.1667 135.213 23.0833 134.646 24.25C134.113 25.4167 133.846 26.7667 133.846 28.3V38H129.196V17.3H133.346ZM158.833 8.2H163.483V17.4H169.183V21.05H163.483V38H158.833V21.05H155.033V17.4H158.833V8.2ZM183.402 38.5C181.469 38.5 179.702 38.0833 178.102 37.25C176.535 36.4167 175.285 35.2 174.352 33.6C173.452 31.9667 173.002 29.9833 173.002 27.65C173.002 25.35 173.485 23.3667 174.452 21.7C175.419 20 176.702 18.7 178.302 17.8C179.935 16.9 181.719 16.45 183.652 16.45C185.585 16.45 187.219 16.9 188.552 17.8C189.885 18.6667 190.902 19.7 191.602 20.9L191.302 21.7L191.752 17.3H196.052V38H191.402V32.6L191.902 33.8C191.769 34.1333 191.469 34.5667 191.002 35.1C190.569 35.6 189.969 36.1167 189.202 36.65C188.469 37.1833 187.619 37.6333 186.652 38C185.685 38.3333 184.602 38.5 183.402 38.5ZM184.652 34.65C185.819 34.65 186.869 34.4333 187.802 34C188.735 33.5667 189.502 32.9667 190.102 32.2C190.735 31.4 191.169 30.45 191.402 29.35V25.3C191.135 24.3 190.669 23.4333 190.002 22.7C189.335 21.9333 188.535 21.35 187.602 20.95C186.669 20.5167 185.635 20.3 184.502 20.3C183.269 20.3 182.135 20.6 181.102 21.2C180.069 21.8 179.235 22.6333 178.602 23.7C178.002 24.7667 177.702 26.0167 177.702 27.45C177.702 28.7833 178.019 30 178.652 31.1C179.285 32.2 180.135 33.0667 181.202 33.7C182.269 34.3333 183.419 34.65 184.652 34.65ZM208.249 17.3L208.699 23.3L208.449 22.5C208.982 21.2333 209.749 20.1667 210.749 19.3C211.782 18.4 212.849 17.7167 213.949 17.25C215.082 16.75 216.065 16.5 216.899 16.5L216.649 21.1C215.082 21 213.699 21.3 212.499 22C211.332 22.7 210.399 23.6333 209.699 24.8C209.032 25.9667 208.699 27.2167 208.699 28.55V38H204.099V17.3H208.249ZM222.898 17.3H227.548V38H222.898V17.3ZM222.548 9.8C222.548 9.06667 222.831 8.45 223.398 7.95C223.998 7.45 224.648 7.2 225.348 7.2C226.048 7.2 226.664 7.45 227.198 7.95C227.764 8.45 228.048 9.06667 228.048 9.8C228.048 10.5667 227.764 11.2 227.198 11.7C226.664 12.1667 226.048 12.4 225.348 12.4C224.648 12.4 223.998 12.15 223.398 11.65C222.831 11.15 222.548 10.5333 222.548 9.8ZM244.193 38.5C242.26 38.5 240.493 38.0833 238.893 37.25C237.326 36.4167 236.076 35.2 235.143 33.6C234.243 31.9667 233.793 29.9833 233.793 27.65C233.793 25.35 234.276 23.3667 235.243 21.7C236.21 20 237.493 18.7 239.093 17.8C240.726 16.9 242.51 16.45 244.443 16.45C246.376 16.45 248.01 16.9 249.343 17.8C250.676 18.6667 251.693 19.7 252.393 20.9L252.093 21.7L252.543 17.3H256.843V38H252.193V32.6L252.693 33.8C252.56 34.1333 252.26 34.5667 251.793 35.1C251.36 35.6 250.76 36.1167 249.993 36.65C249.26 37.1833 248.41 37.6333 247.443 38C246.476 38.3333 245.393 38.5 244.193 38.5ZM245.443 34.65C246.61 34.65 247.66 34.4333 248.593 34C249.526 33.5667 250.293 32.9667 250.893 32.2C251.526 31.4 251.96 30.45 252.193 29.35V25.3C251.926 24.3 251.46 23.4333 250.793 22.7C250.126 21.9333 249.326 21.35 248.393 20.95C247.46 20.5167 246.426 20.3 245.293 20.3C244.06 20.3 242.926 20.6 241.893 21.2C240.86 21.8 240.026 22.6333 239.393 23.7C238.793 24.7667 238.493 26.0167 238.493 27.45C238.493 28.7833 238.81 30 239.443 31.1C240.076 32.2 240.926 33.0667 241.993 33.7C243.06 34.3333 244.21 34.65 245.443 34.65Z" fill="#DA9E6B"/>
<path d="M7.968 132V64.512H27.264L48 113.856H48.576L47.232 64.512H60.96V132H41.664L20.928 82.56H20.352L21.696 132H7.968ZM98.1908 133.248C91.9828 133.248 87.0548 132.064 83.4068 129.696C79.7588 127.264 77.1668 123.84 75.6308 119.424C74.0948 115.008 73.3268 109.76 73.3268 103.68C73.3268 97.664 74.0948 92.48 75.6308 88.128C77.1668 83.712 79.7588 80.32 83.4068 77.952C87.0548 75.52 91.9828 74.304 98.1908 74.304C104.463 74.304 109.391 75.52 112.975 77.952C116.559 80.32 119.087 83.712 120.559 88.128C122.095 92.48 122.863 97.696 122.863 103.776C122.863 109.792 122.095 115.008 120.559 119.424C119.087 123.84 116.559 127.264 112.975 129.696C109.391 132.064 104.463 133.248 98.1908 133.248ZM98.1908 121.92C100.047 121.92 101.583 121.664 102.799 121.152C104.015 120.64 104.975 119.712 105.679 118.368C106.447 117.024 106.959 115.168 107.215 112.8C107.535 110.432 107.695 107.424 107.695 103.776C107.695 100.064 107.535 97.024 107.215 94.656C106.895 92.288 106.383 90.464 105.679 89.184C104.975 87.84 104.015 86.912 102.799 86.4C101.583 85.888 100.047 85.632 98.1908 85.632C96.3348 85.632 94.7668 85.888 93.4868 86.4C92.2708 86.912 91.2788 87.84 90.5108 89.184C89.8068 90.464 89.2948 92.288 88.9748 94.656C88.6548 97.024 88.4948 100.064 88.4948 103.776C88.4948 107.424 88.6548 110.432 88.9748 112.8C89.2948 115.168 89.8068 117.024 90.5108 118.368C91.2788 119.712 92.2708 120.64 93.4868 121.152C94.7668 121.664 96.3348 121.92 98.1908 121.92ZM144.78 132L128.364 75.552H143.724L153.324 119.328H153.9L163.5 75.552H178.86L162.444 132H144.78ZM201.031 133.248C197.959 133.248 195.175 132.544 192.679 131.136C190.247 129.664 188.295 127.552 186.823 124.8C185.351 122.048 184.615 118.72 184.615 114.816C184.615 110.144 185.671 106.496 187.783 103.872C189.895 101.184 192.871 99.264 196.711 98.112C200.551 96.96 205.095 96.384 210.343 96.384H217.543C217.543 93.632 217.415 91.68 217.159 90.528C216.903 89.376 216.615 88.544 216.295 88.032C216.039 87.584 215.527 87.168 214.759 86.784C214.055 86.4 212.583 86.208 210.343 86.208C208.039 86.208 205.639 86.4 203.143 86.784C200.711 87.168 198.439 87.616 196.327 88.128C194.215 88.64 192.487 89.088 191.143 89.472C189.799 89.856 189.127 90.048 189.127 90.048L186.055 79.296C186.055 79.296 186.695 79.04 187.975 78.528C189.319 78.016 191.111 77.44 193.351 76.8C195.655 76.16 198.247 75.584 201.127 75.072C204.071 74.56 207.175 74.304 210.439 74.304C215.943 74.304 220.295 75.168 223.495 76.896C226.695 78.56 228.967 80.992 230.311 84.192C231.719 87.328 232.423 91.104 232.423 95.52V132H223.015L221.095 125.76H220.519C220.519 125.76 219.943 126.144 218.791 126.912C217.703 127.68 216.231 128.544 214.375 129.504C212.519 130.464 210.439 131.328 208.135 132.096C205.831 132.864 203.463 133.248 201.031 133.248ZM205.351 121.056C207.143 121.056 208.967 120.768 210.823 120.192C212.743 119.552 214.343 118.944 215.623 118.368C216.903 117.728 217.543 117.408 217.543 117.408V107.424C217.543 107.424 216.775 107.36 215.239 107.232C213.703 107.04 211.719 106.944 209.287 106.944C205.063 106.944 202.439 107.424 201.415 108.384C200.967 108.768 200.583 109.44 200.263 110.4C199.943 111.296 199.783 112.576 199.783 114.24C199.783 116.608 200.199 118.336 201.031 119.424C201.927 120.512 203.367 121.056 205.351 121.056ZM271.874 132V64.512H312.386V77.376L280.226 76.992L287.138 70.368L286.274 98.208L279.746 91.488H309.986V104.064H279.746L286.274 97.344L287.138 126.048L280.226 119.424L312.386 119.136V132H271.874ZM324.365 132V75.552H333.581L335.501 81.504H336.077C336.077 81.504 336.525 81.152 337.421 80.448C338.381 79.68 339.629 78.848 341.165 77.952C342.701 76.992 344.365 76.16 346.157 75.456C347.949 74.688 349.709 74.304 351.437 74.304C353.677 74.304 355.277 74.496 356.237 74.88C357.197 75.2 357.677 75.36 357.677 75.36L356.525 88.224C356.525 88.224 355.949 88.192 354.797 88.128C353.709 88 352.525 87.936 351.245 87.936C349.645 87.936 348.077 88.128 346.541 88.512C345.069 88.832 343.725 89.248 342.509 89.76C341.293 90.272 340.205 90.816 339.245 91.392V132H324.365ZM377.937 133.248C374.865 133.248 372.081 132.544 369.585 131.136C367.153 129.664 365.201 127.552 363.729 124.8C362.257 122.048 361.521 118.72 361.521 114.816C361.521 110.144 362.577 106.496 364.689 103.872C366.801 101.184 369.777 99.264 373.617 98.112C377.457 96.96 382.001 96.384 387.249 96.384H394.449C394.449 93.632 394.321 91.68 394.065 90.528C393.809 89.376 393.521 88.544 393.201 88.032C392.945 87.584 392.433 87.168 391.665 86.784C390.961 86.4 389.489 86.208 387.249 86.208C384.945 86.208 382.545 86.4 380.049 86.784C377.617 87.168 375.345 87.616 373.233 88.128C371.121 88.64 369.393 89.088 368.049 89.472C366.705 89.856 366.033 90.048 366.033 90.048L362.961 79.296C362.961 79.296 363.601 79.04 364.881 78.528C366.225 78.016 368.017 77.44 370.257 76.8C372.561 76.16 375.153 75.584 378.033 75.072C380.977 74.56 384.081 74.304 387.345 74.304C392.849 74.304 397.201 75.168 400.401 76.896C403.601 78.56 405.873 80.992 407.217 84.192C408.625 87.328 409.329 91.104 409.329 95.52V132H399.921L398.001 125.76H397.425C397.425 125.76 396.849 126.144 395.697 126.912C394.609 127.68 393.137 128.544 391.281 129.504C389.425 130.464 387.345 131.328 385.041 132.096C382.737 132.864 380.369 133.248 377.937 133.248ZM382.257 121.056C384.049 121.056 385.873 120.768 387.729 120.192C389.649 119.552 391.249 118.944 392.529 118.368C393.809 117.728 394.449 117.408 394.449 117.408V107.424C394.449 107.424 393.681 107.36 392.145 107.232C390.609 107.04 388.625 106.944 386.193 106.944C381.969 106.944 379.345 107.424 378.321 108.384C377.873 108.768 377.489 109.44 377.169 110.4C376.849 111.296 376.689 112.576 376.689 114.24C376.689 116.608 377.105 118.336 377.937 119.424C378.833 120.512 380.273 121.056 382.257 121.056Z" fill="#F7AE53"/>
<path d="M5.0625 175.73V182H1.60547V165.488H9.85547C11.8242 165.488 13.3438 165.914 14.4141 166.766C15.4844 167.609 16.0195 168.824 16.0195 170.41C16.0195 171.566 15.6914 172.566 15.0352 173.41C14.3789 174.246 13.4922 174.797 12.375 175.062L16.8398 182H12.9492L9.11719 175.73H5.0625ZM12.5391 170.551C12.5391 169.762 12.2852 169.168 11.7773 168.77C11.2695 168.371 10.5078 168.172 9.49219 168.172H5.0625V173.047H9.58594C10.5547 173.047 11.2891 172.828 11.7891 172.391C12.2891 171.953 12.5391 171.34 12.5391 170.551ZM21.7383 176.293C21.7383 177.527 21.9648 178.461 22.418 179.094C22.8789 179.719 23.5312 180.031 24.375 180.031C24.9531 180.031 25.4258 179.906 25.793 179.656C26.168 179.398 26.4297 179.02 26.5781 178.52L29.6836 178.789C28.7852 181.086 26.9609 182.234 24.2109 182.234C22.3047 182.234 20.8398 181.672 19.8164 180.547C18.793 179.414 18.2812 177.766 18.2812 175.602C18.2812 173.508 18.8008 171.898 19.8398 170.773C20.8789 169.648 22.3516 169.086 24.2578 169.086C26.0781 169.086 27.4688 169.691 28.4297 170.902C29.3906 172.105 29.8711 173.871 29.8711 176.199V176.293H21.7383ZM26.6836 174.23C26.6211 173.207 26.375 172.441 25.9453 171.934C25.5156 171.418 24.9375 171.16 24.2109 171.16C23.4375 171.16 22.8398 171.43 22.418 171.969C22.0039 172.508 21.7852 173.262 21.7617 174.23H26.6836ZM36.2461 171.547V182H32.9648V171.547H31.1133V169.32H32.9648V167.996C32.9648 166.848 33.2695 165.996 33.8789 165.441C34.4883 164.887 35.4141 164.609 36.6562 164.609C37.2969 164.609 37.9922 164.672 38.7422 164.797V166.918C38.4297 166.848 38.1094 166.812 37.7812 166.812C37.2188 166.812 36.8203 166.926 36.5859 167.152C36.3594 167.371 36.2461 167.762 36.2461 168.324V169.32H38.7422V171.547H36.2461ZM52.418 175.648C52.418 177.703 51.8477 179.316 50.707 180.488C49.5664 181.652 47.9883 182.234 45.9727 182.234C43.9961 182.234 42.4453 181.648 41.3203 180.477C40.1953 179.305 39.6328 177.695 39.6328 175.648C39.6328 173.609 40.1953 172.008 41.3203 170.844C42.4453 169.672 44.0195 169.086 46.043 169.086C48.1133 169.086 49.6914 169.652 50.7773 170.785C51.8711 171.91 52.418 173.531 52.418 175.648ZM48.9727 175.648C48.9727 174.141 48.7266 173.047 48.2344 172.367C47.7422 171.688 47.0273 171.348 46.0898 171.348C45.0898 171.348 44.3398 171.707 43.8398 172.426C43.3398 173.137 43.0898 174.211 43.0898 175.648C43.0898 177.062 43.332 178.141 43.8164 178.883C44.3086 179.617 45.0156 179.984 45.9375 179.984C46.9531 179.984 47.7109 179.625 48.2109 178.906C48.7188 178.18 48.9727 177.094 48.9727 175.648ZM58.3359 175.777V182H55.043V172.297C55.043 171.602 55.0312 171.023 55.0078 170.562C54.9922 170.094 54.9727 169.68 54.9492 169.32H58.0898C58.1055 169.391 58.1211 169.547 58.1367 169.789C58.1523 170.031 58.168 170.305 58.1836 170.609C58.1992 170.906 58.2109 171.188 58.2188 171.453C58.2344 171.719 58.2422 171.91 58.2422 172.027H58.2891C58.6016 171.152 58.8867 170.523 59.1445 170.141C59.3945 169.773 59.6914 169.504 60.0352 169.332C60.3789 169.16 60.8086 169.074 61.3242 169.074C61.7461 169.074 62.0859 169.133 62.3438 169.25V172.004C61.8203 171.887 61.3516 171.828 60.9375 171.828C60.1172 171.828 59.4766 172.16 59.0156 172.824C58.5625 173.488 58.3359 174.473 58.3359 175.777ZM67.6875 175.203V182H64.3945V172.156C64.3945 171.477 64.3828 170.922 64.3594 170.492C64.3438 170.055 64.3242 169.664 64.3008 169.32H67.4414C67.457 169.414 67.4766 169.637 67.5 169.988C67.5234 170.332 67.543 170.688 67.5586 171.055C67.582 171.414 67.5938 171.676 67.5938 171.84H67.6406C68.0469 170.871 68.5508 170.168 69.1523 169.73C69.7617 169.293 70.4883 169.074 71.332 169.074C72.3008 169.074 73.0781 169.305 73.6641 169.766C74.2578 170.227 74.6562 170.918 74.8594 171.84H74.9297C75.3594 170.855 75.875 170.148 76.4766 169.719C77.0781 169.289 77.8438 169.074 78.7734 169.074C80.0078 169.074 80.9492 169.496 81.5977 170.34C82.2461 171.176 82.5703 172.379 82.5703 173.949V182H79.3008V174.887C79.3008 173.77 79.1406 172.934 78.8203 172.379C78.5 171.824 78.0195 171.547 77.3789 171.547C76.7383 171.547 76.2031 171.859 75.7734 172.484C75.3438 173.102 75.1289 173.957 75.1289 175.051V182H71.8594V174.887C71.8594 173.77 71.6992 172.934 71.3789 172.379C71.0586 171.824 70.5781 171.547 69.9375 171.547C69.2734 171.547 68.7305 171.887 68.3086 172.566C67.8945 173.246 67.6875 174.125 67.6875 175.203ZM88.6758 182.234C87.4492 182.234 86.4922 181.902 85.8047 181.238C85.1172 180.566 84.7734 179.625 84.7734 178.414C84.7734 177.102 85.1992 176.105 86.0508 175.426C86.9102 174.746 88.1523 174.391 89.7773 174.359L92.5078 174.312V173.668C92.5078 172.84 92.3633 172.227 92.0742 171.828C91.7852 171.422 91.3125 171.219 90.6562 171.219C90.0469 171.219 89.5977 171.359 89.3086 171.641C89.0273 171.914 88.8516 172.371 88.7812 173.012L85.3477 172.848C85.7773 170.34 87.5938 169.086 90.7969 169.086C92.3984 169.086 93.6328 169.48 94.5 170.27C95.3672 171.059 95.8008 172.18 95.8008 173.633V178.25C95.8008 178.961 95.8789 179.453 96.0352 179.727C96.1992 179.992 96.4688 180.125 96.8438 180.125C97.0938 180.125 97.3359 180.102 97.5703 180.055V181.836C97.1641 181.938 96.8164 182.012 96.5273 182.059C96.2383 182.113 95.8828 182.141 95.4609 182.141C94.6328 182.141 94.0195 181.938 93.6211 181.531C93.2305 181.125 92.9961 180.527 92.918 179.738H92.8477C92.3867 180.566 91.8086 181.191 91.1133 181.613C90.418 182.027 89.6055 182.234 88.6758 182.234ZM92.5078 176.129L90.8203 176.152C90.0469 176.191 89.5039 176.273 89.1914 176.398C88.8711 176.539 88.625 176.75 88.4531 177.031C88.2891 177.312 88.207 177.688 88.207 178.156C88.207 178.758 88.3438 179.207 88.6172 179.504C88.8984 179.793 89.2695 179.938 89.7305 179.938C90.2461 179.938 90.7188 179.797 91.1484 179.516C91.5703 179.234 91.9023 178.848 92.1445 178.355C92.3867 177.855 92.5078 177.328 92.5078 176.773V176.129ZM109.793 178.297C109.793 179.523 109.289 180.488 108.281 181.191C107.281 181.887 105.895 182.234 104.121 182.234C102.379 182.234 101.043 181.961 100.113 181.414C99.1914 180.859 98.5781 180 98.2734 178.836L101.168 178.402C101.332 179.004 101.613 179.43 102.012 179.68C102.418 179.93 103.121 180.055 104.121 180.055C105.043 180.055 105.715 179.938 106.137 179.703C106.559 179.469 106.77 179.102 106.77 178.602C106.77 178.195 106.598 177.875 106.254 177.641C105.918 177.398 105.344 177.195 104.531 177.031C103.914 176.906 103.359 176.785 102.867 176.668C102.383 176.551 101.965 176.438 101.613 176.328C101.27 176.211 100.988 176.102 100.77 176C100.121 175.68 99.625 175.27 99.2812 174.77C98.9453 174.27 98.7773 173.652 98.7773 172.918C98.7773 171.707 99.2422 170.766 100.172 170.094C101.109 169.414 102.434 169.074 104.145 169.074C105.652 169.074 106.863 169.367 107.777 169.953C108.699 170.539 109.273 171.387 109.5 172.496L106.582 172.801C106.488 172.285 106.258 171.902 105.891 171.652C105.523 171.395 104.941 171.266 104.145 171.266C103.363 171.266 102.777 171.367 102.387 171.57C101.996 171.766 101.801 172.098 101.801 172.566C101.801 172.934 101.949 173.227 102.246 173.445C102.551 173.656 103.059 173.832 103.77 173.973C104.762 174.176 105.641 174.387 106.406 174.605C107.18 174.816 107.801 175.07 108.27 175.367C108.73 175.664 109.098 176.047 109.371 176.516C109.652 176.977 109.793 177.57 109.793 178.297ZM121.863 176.293C121.863 177.527 122.09 178.461 122.543 179.094C123.004 179.719 123.656 180.031 124.5 180.031C125.078 180.031 125.551 179.906 125.918 179.656C126.293 179.398 126.555 179.02 126.703 178.52L129.809 178.789C128.91 181.086 127.086 182.234 124.336 182.234C122.43 182.234 120.965 181.672 119.941 180.547C118.918 179.414 118.406 177.766 118.406 175.602C118.406 173.508 118.926 171.898 119.965 170.773C121.004 169.648 122.477 169.086 124.383 169.086C126.203 169.086 127.594 169.691 128.555 170.902C129.516 172.105 129.996 173.871 129.996 176.199V176.293H121.863ZM126.809 174.23C126.746 173.207 126.5 172.441 126.07 171.934C125.641 171.418 125.062 171.16 124.336 171.16C123.562 171.16 122.965 171.43 122.543 171.969C122.129 172.508 121.91 173.262 121.887 174.23H126.809ZM149.871 178.297C149.871 179.523 149.367 180.488 148.359 181.191C147.359 181.887 145.973 182.234 144.199 182.234C142.457 182.234 141.121 181.961 140.191 181.414C139.27 180.859 138.656 180 138.352 178.836L141.246 178.402C141.41 179.004 141.691 179.43 142.09 179.68C142.496 179.93 143.199 180.055 144.199 180.055C145.121 180.055 145.793 179.938 146.215 179.703C146.637 179.469 146.848 179.102 146.848 178.602C146.848 178.195 146.676 177.875 146.332 177.641C145.996 177.398 145.422 177.195 144.609 177.031C143.992 176.906 143.438 176.785 142.945 176.668C142.461 176.551 142.043 176.438 141.691 176.328C141.348 176.211 141.066 176.102 140.848 176C140.199 175.68 139.703 175.27 139.359 174.77C139.023 174.27 138.855 173.652 138.855 172.918C138.855 171.707 139.32 170.766 140.25 170.094C141.188 169.414 142.512 169.074 144.223 169.074C145.73 169.074 146.941 169.367 147.855 169.953C148.777 170.539 149.352 171.387 149.578 172.496L146.66 172.801C146.566 172.285 146.336 171.902 145.969 171.652C145.602 171.395 145.02 171.266 144.223 171.266C143.441 171.266 142.855 171.367 142.465 171.57C142.074 171.766 141.879 172.098 141.879 172.566C141.879 172.934 142.027 173.227 142.324 173.445C142.629 173.656 143.137 173.832 143.848 173.973C144.84 174.176 145.719 174.387 146.484 174.605C147.258 174.816 147.879 175.07 148.348 175.367C148.809 175.664 149.176 176.047 149.449 176.516C149.73 176.977 149.871 177.57 149.871 178.297ZM155.262 176.293C155.262 177.527 155.488 178.461 155.941 179.094C156.402 179.719 157.055 180.031 157.898 180.031C158.477 180.031 158.949 179.906 159.316 179.656C159.691 179.398 159.953 179.02 160.102 178.52L163.207 178.789C162.309 181.086 160.484 182.234 157.734 182.234C155.828 182.234 154.363 181.672 153.34 180.547C152.316 179.414 151.805 177.766 151.805 175.602C151.805 173.508 152.324 171.898 153.363 170.773C154.402 169.648 155.875 169.086 157.781 169.086C159.602 169.086 160.992 169.691 161.953 170.902C162.914 172.105 163.395 173.871 163.395 176.199V176.293H155.262ZM160.207 174.23C160.145 173.207 159.898 172.441 159.469 171.934C159.039 171.418 158.461 171.16 157.734 171.16C156.961 171.16 156.363 171.43 155.941 171.969C155.527 172.508 155.309 173.262 155.285 174.23H160.207ZM169.195 175.777V182H165.902V172.297C165.902 171.602 165.891 171.023 165.867 170.562C165.852 170.094 165.832 169.68 165.809 169.32H168.949C168.965 169.391 168.98 169.547 168.996 169.789C169.012 170.031 169.027 170.305 169.043 170.609C169.059 170.906 169.07 171.188 169.078 171.453C169.094 171.719 169.102 171.91 169.102 172.027H169.148C169.461 171.152 169.746 170.523 170.004 170.141C170.254 169.773 170.551 169.504 170.895 169.332C171.238 169.16 171.668 169.074 172.184 169.074C172.605 169.074 172.945 169.133 173.203 169.25V172.004C172.68 171.887 172.211 171.828 171.797 171.828C170.977 171.828 170.336 172.16 169.875 172.824C169.422 173.488 169.195 174.473 169.195 175.777ZM186.82 169.32L182.145 182H178.207L173.672 169.32H177.152L179.367 176.41C179.43 176.605 179.527 176.949 179.66 177.441C179.801 177.926 179.98 178.559 180.199 179.34C180.23 179.23 180.293 179.012 180.387 178.684C180.488 178.355 180.598 177.996 180.715 177.605C180.832 177.215 180.934 176.887 181.02 176.621L183.375 169.32H186.82ZM191.906 164.609V167.035H188.613V164.609H191.906ZM191.906 169.32V182H188.613V169.32H191.906ZM200.578 182.234C198.656 182.234 197.172 181.664 196.125 180.523C195.078 179.375 194.555 177.777 194.555 175.73C194.555 173.637 195.082 172.008 196.137 170.844C197.191 169.672 198.688 169.086 200.625 169.086C202.117 169.086 203.352 169.461 204.328 170.211C205.305 170.961 205.918 171.996 206.168 173.316L202.852 173.48C202.758 172.832 202.523 172.316 202.148 171.934C201.773 171.543 201.242 171.348 200.555 171.348C199.703 171.348 199.066 171.703 198.645 172.414C198.223 173.117 198.012 174.18 198.012 175.602C198.012 177.062 198.227 178.16 198.656 178.895C199.094 179.621 199.742 179.984 200.602 179.984C201.227 179.984 201.75 179.789 202.172 179.398C202.594 179 202.855 178.41 202.957 177.629L206.262 177.781C206.145 178.672 205.828 179.453 205.312 180.125C204.805 180.789 204.145 181.309 203.332 181.684C202.52 182.051 201.602 182.234 200.578 182.234ZM202.887 184.754C202.887 185.488 202.582 186.043 201.973 186.418C201.363 186.793 200.484 186.98 199.336 186.98C198.984 186.98 198.59 186.957 198.152 186.91V185.527C198.402 185.582 198.73 185.609 199.137 185.609C200.207 185.609 200.742 185.34 200.742 184.801C200.742 184.527 200.633 184.324 200.414 184.191C200.195 184.059 199.828 183.992 199.312 183.992C199.164 183.992 199.039 183.992 198.938 183.992C198.836 184 198.758 184.008 198.703 184.016L199.43 182H201.105L200.719 182.961C201.453 183 201.996 183.18 202.348 183.5C202.707 183.82 202.887 184.238 202.887 184.754ZM220.699 175.648C220.699 177.703 220.129 179.316 218.988 180.488C217.848 181.652 216.27 182.234 214.254 182.234C212.277 182.234 210.727 181.648 209.602 180.477C208.477 179.305 207.914 177.695 207.914 175.648C207.914 173.609 208.477 172.008 209.602 170.844C210.727 169.672 212.301 169.086 214.324 169.086C216.395 169.086 217.973 169.652 219.059 170.785C220.152 171.91 220.699 173.531 220.699 175.648ZM217.254 175.648C217.254 174.141 217.008 173.047 216.516 172.367C216.023 171.688 215.309 171.348 214.371 171.348C213.371 171.348 212.621 171.707 212.121 172.426C211.621 173.137 211.371 174.211 211.371 175.648C211.371 177.062 211.613 178.141 212.098 178.883C212.59 179.617 213.297 179.984 214.219 179.984C215.234 179.984 215.992 179.625 216.492 178.906C217 178.18 217.254 177.094 217.254 175.648ZM234.012 178.297C234.012 179.523 233.508 180.488 232.5 181.191C231.5 181.887 230.113 182.234 228.34 182.234C226.598 182.234 225.262 181.961 224.332 181.414C223.41 180.859 222.797 180 222.492 178.836L225.387 178.402C225.551 179.004 225.832 179.43 226.23 179.68C226.637 179.93 227.34 180.055 228.34 180.055C229.262 180.055 229.934 179.938 230.355 179.703C230.777 179.469 230.988 179.102 230.988 178.602C230.988 178.195 230.816 177.875 230.473 177.641C230.137 177.398 229.562 177.195 228.75 177.031C228.133 176.906 227.578 176.785 227.086 176.668C226.602 176.551 226.184 176.438 225.832 176.328C225.488 176.211 225.207 176.102 224.988 176C224.34 175.68 223.844 175.27 223.5 174.77C223.164 174.27 222.996 173.652 222.996 172.918C222.996 171.707 223.461 170.766 224.391 170.094C225.328 169.414 226.652 169.074 228.363 169.074C229.871 169.074 231.082 169.367 231.996 169.953C232.918 170.539 233.492 171.387 233.719 172.496L230.801 172.801C230.707 172.285 230.477 171.902 230.109 171.652C229.742 171.395 229.16 171.266 228.363 171.266C227.582 171.266 226.996 171.367 226.605 171.57C226.215 171.766 226.02 172.098 226.02 172.566C226.02 172.934 226.168 173.227 226.465 173.445C226.77 173.656 227.277 173.832 227.988 173.973C228.98 174.176 229.859 174.387 230.625 174.605C231.398 174.816 232.02 175.07 232.488 175.367C232.949 175.664 233.316 176.047 233.59 176.516C233.871 176.977 234.012 177.57 234.012 178.297ZM251.578 182C251.562 181.922 251.539 181.758 251.508 181.508C251.477 181.258 251.449 180.984 251.426 180.688C251.41 180.391 251.402 180.141 251.402 179.938H251.355C250.996 180.703 250.48 181.277 249.809 181.66C249.137 182.043 248.301 182.234 247.301 182.234C245.824 182.234 244.684 181.66 243.879 180.512C243.074 179.355 242.672 177.742 242.672 175.672C242.672 173.57 243.094 171.949 243.938 170.809C244.789 169.66 245.992 169.086 247.547 169.086C248.445 169.086 249.219 169.273 249.867 169.648C250.523 170.023 251.027 170.582 251.379 171.324H251.402L251.379 169.238V164.609H254.672V179.234C254.672 179.625 254.68 180.051 254.695 180.512C254.711 180.973 254.734 181.469 254.766 182H251.578ZM246.105 175.672C246.105 177.109 246.32 178.188 246.75 178.906C247.188 179.625 247.836 179.984 248.695 179.984C249.562 179.984 250.234 179.605 250.711 178.848C251.188 178.082 251.426 176.996 251.426 175.59C251.426 174.223 251.195 173.172 250.734 172.438C250.281 171.695 249.609 171.324 248.719 171.324C247.836 171.324 247.18 171.684 246.75 172.402C246.32 173.113 246.105 174.203 246.105 175.672ZM260.754 176.293C260.754 177.527 260.98 178.461 261.434 179.094C261.895 179.719 262.547 180.031 263.391 180.031C263.969 180.031 264.441 179.906 264.809 179.656C265.184 179.398 265.445 179.02 265.594 178.52L268.699 178.789C267.801 181.086 265.977 182.234 263.227 182.234C261.32 182.234 259.855 181.672 258.832 180.547C257.809 179.414 257.297 177.766 257.297 175.602C257.297 173.508 257.816 171.898 258.855 170.773C259.895 169.648 261.367 169.086 263.273 169.086C265.094 169.086 266.484 169.691 267.445 170.902C268.406 172.105 268.887 173.871 268.887 176.199V176.293H260.754ZM265.699 174.23C265.637 173.207 265.391 172.441 264.961 171.934C264.531 171.418 263.953 171.16 263.227 171.16C262.453 171.16 261.855 171.43 261.434 171.969C261.02 172.508 260.801 173.262 260.777 174.23H265.699ZM283.359 182.234C281.438 182.234 279.953 181.664 278.906 180.523C277.859 179.375 277.336 177.777 277.336 175.73C277.336 173.637 277.863 172.008 278.918 170.844C279.973 169.672 281.469 169.086 283.406 169.086C284.898 169.086 286.133 169.461 287.109 170.211C288.086 170.961 288.699 171.996 288.949 173.316L285.633 173.48C285.539 172.832 285.305 172.316 284.93 171.934C284.555 171.543 284.023 171.348 283.336 171.348C282.484 171.348 281.848 171.703 281.426 172.414C281.004 173.117 280.793 174.18 280.793 175.602C280.793 177.062 281.008 178.16 281.438 178.895C281.875 179.621 282.523 179.984 283.383 179.984C284.008 179.984 284.531 179.789 284.953 179.398C285.375 179 285.637 178.41 285.738 177.629L289.043 177.781C288.926 178.672 288.609 179.453 288.094 180.125C287.586 180.789 286.926 181.309 286.113 181.684C285.301 182.051 284.383 182.234 283.359 182.234ZM294.363 182.234C293.137 182.234 292.18 181.902 291.492 181.238C290.805 180.566 290.461 179.625 290.461 178.414C290.461 177.102 290.887 176.105 291.738 175.426C292.598 174.746 293.84 174.391 295.465 174.359L298.195 174.312V173.668C298.195 172.84 298.051 172.227 297.762 171.828C297.473 171.422 297 171.219 296.344 171.219C295.734 171.219 295.285 171.359 294.996 171.641C294.715 171.914 294.539 172.371 294.469 173.012L291.035 172.848C291.465 170.34 293.281 169.086 296.484 169.086C298.086 169.086 299.32 169.48 300.188 170.27C301.055 171.059 301.488 172.18 301.488 173.633V178.25C301.488 178.961 301.566 179.453 301.723 179.727C301.887 179.992 302.156 180.125 302.531 180.125C302.781 180.125 303.023 180.102 303.258 180.055V181.836C302.852 181.938 302.504 182.012 302.215 182.059C301.926 182.113 301.57 182.141 301.148 182.141C300.32 182.141 299.707 181.938 299.309 181.531C298.918 181.125 298.684 180.527 298.605 179.738H298.535C298.074 180.566 297.496 181.191 296.801 181.613C296.105 182.027 295.293 182.234 294.363 182.234ZM298.195 176.129L296.508 176.152C295.734 176.191 295.191 176.273 294.879 176.398C294.559 176.539 294.312 176.75 294.141 177.031C293.977 177.312 293.895 177.688 293.895 178.156C293.895 178.758 294.031 179.207 294.305 179.504C294.586 179.793 294.957 179.938 295.418 179.938C295.934 179.938 296.406 179.797 296.836 179.516C297.258 179.234 297.59 178.848 297.832 178.355C298.074 177.855 298.195 177.328 298.195 176.773V176.129ZM308.086 175.777V182H304.793V172.297C304.793 171.602 304.781 171.023 304.758 170.562C304.742 170.094 304.723 169.68 304.699 169.32H307.84C307.855 169.391 307.871 169.547 307.887 169.789C307.902 170.031 307.918 170.305 307.934 170.609C307.949 170.906 307.961 171.188 307.969 171.453C307.984 171.719 307.992 171.91 307.992 172.027H308.039C308.352 171.152 308.637 170.523 308.895 170.141C309.145 169.773 309.441 169.504 309.785 169.332C310.129 169.16 310.559 169.074 311.074 169.074C311.496 169.074 311.836 169.133 312.094 169.25V172.004C311.57 171.887 311.102 171.828 310.688 171.828C309.867 171.828 309.227 172.16 308.766 172.824C308.312 173.488 308.086 174.473 308.086 175.777ZM326.145 175.602C326.145 177.719 325.719 179.355 324.867 180.512C324.023 181.66 322.828 182.234 321.281 182.234C319.445 182.234 318.164 181.484 317.438 179.984H317.367C317.414 180.219 317.438 180.93 317.438 182.117V186.98H314.145V172.238C314.145 171.637 314.137 171.094 314.121 170.609C314.105 170.125 314.082 169.695 314.051 169.32H317.25C317.281 169.414 317.305 169.574 317.32 169.801C317.344 170.02 317.359 170.27 317.367 170.551C317.383 170.832 317.391 171.109 317.391 171.383H317.438C317.805 170.602 318.328 170.02 319.008 169.637C319.688 169.246 320.516 169.051 321.492 169.051C322.969 169.051 324.113 169.621 324.926 170.762C325.738 171.895 326.145 173.508 326.145 175.602ZM322.711 175.602C322.711 174.18 322.492 173.113 322.055 172.402C321.625 171.691 320.973 171.336 320.098 171.336C319.223 171.336 318.551 171.719 318.082 172.484C317.621 173.25 317.391 174.32 317.391 175.695C317.391 177.062 317.621 178.121 318.082 178.871C318.551 179.613 319.215 179.984 320.074 179.984C320.957 179.984 321.617 179.621 322.055 178.895C322.492 178.16 322.711 177.062 322.711 175.602ZM332.109 164.609V167.035H328.816V164.609H332.109ZM332.109 169.32V182H328.816V169.32H332.109ZM338.789 175.203V182H335.496V172.156C335.496 171.477 335.484 170.922 335.461 170.492C335.445 170.055 335.426 169.664 335.402 169.32H338.543C338.559 169.414 338.578 169.637 338.602 169.988C338.625 170.332 338.645 170.688 338.66 171.055C338.684 171.414 338.695 171.676 338.695 171.84H338.742C339.188 170.871 339.746 170.168 340.418 169.73C341.09 169.293 341.891 169.074 342.82 169.074C344.164 169.074 345.195 169.488 345.914 170.316C346.633 171.145 346.992 172.355 346.992 173.949V182H343.711V174.887C343.711 173.77 343.523 172.934 343.148 172.379C342.773 171.824 342.207 171.547 341.449 171.547C340.652 171.547 340.008 171.891 339.516 172.578C339.031 173.258 338.789 174.133 338.789 175.203ZM356.191 181.812C355.395 182.078 354.469 182.211 353.414 182.211C352.445 182.211 351.699 181.949 351.176 181.426C350.652 180.895 350.391 180.094 350.391 179.023V171.547H348.785V169.32H350.555L351.586 166.344H353.648V169.32H356.051V171.547H353.648V178.133C353.648 178.75 353.766 179.207 354 179.504C354.234 179.793 354.598 179.938 355.09 179.938C355.324 179.938 355.691 179.883 356.191 179.773V181.812ZM361.09 182.234C359.863 182.234 358.906 181.902 358.219 181.238C357.531 180.566 357.188 179.625 357.188 178.414C357.188 177.102 357.613 176.105 358.465 175.426C359.324 174.746 360.566 174.391 362.191 174.359L364.922 174.312V173.668C364.922 172.84 364.777 172.227 364.488 171.828C364.199 171.422 363.727 171.219 363.07 171.219C362.461 171.219 362.012 171.359 361.723 171.641C361.441 171.914 361.266 172.371 361.195 173.012L357.762 172.848C358.191 170.34 360.008 169.086 363.211 169.086C364.812 169.086 366.047 169.48 366.914 170.27C367.781 171.059 368.215 172.18 368.215 173.633V178.25C368.215 178.961 368.293 179.453 368.449 179.727C368.613 179.992 368.883 180.125 369.258 180.125C369.508 180.125 369.75 180.102 369.984 180.055V181.836C369.578 181.938 369.23 182.012 368.941 182.059C368.652 182.113 368.297 182.141 367.875 182.141C367.047 182.141 366.434 181.938 366.035 181.531C365.645 181.125 365.41 180.527 365.332 179.738H365.262C364.801 180.566 364.223 181.191 363.527 181.613C362.832 182.027 362.02 182.234 361.09 182.234ZM364.922 176.129L363.234 176.152C362.461 176.191 361.918 176.273 361.605 176.398C361.285 176.539 361.039 176.75 360.867 177.031C360.703 177.312 360.621 177.688 360.621 178.156C360.621 178.758 360.758 179.207 361.031 179.504C361.312 179.793 361.684 179.938 362.145 179.938C362.66 179.938 363.133 179.797 363.562 179.516C363.984 179.234 364.316 178.848 364.559 178.355C364.801 177.855 364.922 177.328 364.922 176.773V176.129ZM374.812 175.777V182H371.52V172.297C371.52 171.602 371.508 171.023 371.484 170.562C371.469 170.094 371.449 169.68 371.426 169.32H374.566C374.582 169.391 374.598 169.547 374.613 169.789C374.629 170.031 374.645 170.305 374.66 170.609C374.676 170.906 374.688 171.188 374.695 171.453C374.711 171.719 374.719 171.91 374.719 172.027H374.766C375.078 171.152 375.363 170.523 375.621 170.141C375.871 169.773 376.168 169.504 376.512 169.332C376.855 169.16 377.285 169.074 377.801 169.074C378.223 169.074 378.562 169.133 378.82 169.25V172.004C378.297 171.887 377.828 171.828 377.414 171.828C376.594 171.828 375.953 172.16 375.492 172.824C375.039 173.488 374.812 174.473 374.812 175.777ZM384.164 164.609V167.035H380.871V164.609H384.164ZM384.164 169.32V182H380.871V169.32H384.164ZM390.48 182.234C389.254 182.234 388.297 181.902 387.609 181.238C386.922 180.566 386.578 179.625 386.578 178.414C386.578 177.102 387.004 176.105 387.855 175.426C388.715 174.746 389.957 174.391 391.582 174.359L394.312 174.312V173.668C394.312 172.84 394.168 172.227 393.879 171.828C393.59 171.422 393.117 171.219 392.461 171.219C391.852 171.219 391.402 171.359 391.113 171.641C390.832 171.914 390.656 172.371 390.586 173.012L387.152 172.848C387.582 170.34 389.398 169.086 392.602 169.086C394.203 169.086 395.438 169.48 396.305 170.27C397.172 171.059 397.605 172.18 397.605 173.633V178.25C397.605 178.961 397.684 179.453 397.84 179.727C398.004 179.992 398.273 180.125 398.648 180.125C398.898 180.125 399.141 180.102 399.375 180.055V181.836C398.969 181.938 398.621 182.012 398.332 182.059C398.043 182.113 397.688 182.141 397.266 182.141C396.438 182.141 395.824 181.938 395.426 181.531C395.035 181.125 394.801 180.527 394.723 179.738H394.652C394.191 180.566 393.613 181.191 392.918 181.613C392.223 182.027 391.41 182.234 390.48 182.234ZM394.312 176.129L392.625 176.152C391.852 176.191 391.309 176.273 390.996 176.398C390.676 176.539 390.43 176.75 390.258 177.031C390.094 177.312 390.012 177.688 390.012 178.156C390.012 178.758 390.148 179.207 390.422 179.504C390.703 179.793 391.074 179.938 391.535 179.938C392.051 179.938 392.523 179.797 392.953 179.516C393.375 179.234 393.707 178.848 393.949 178.355C394.191 177.855 394.312 177.328 394.312 176.773V176.129ZM410.309 176.293C410.309 177.527 410.535 178.461 410.988 179.094C411.449 179.719 412.102 180.031 412.945 180.031C413.523 180.031 413.996 179.906 414.363 179.656C414.738 179.398 415 179.02 415.148 178.52L418.254 178.789C417.355 181.086 415.531 182.234 412.781 182.234C410.875 182.234 409.41 181.672 408.387 180.547C407.363 179.414 406.852 177.766 406.852 175.602C406.852 173.508 407.371 171.898 408.41 170.773C409.449 169.648 410.922 169.086 412.828 169.086C414.648 169.086 416.039 169.691 417 170.902C417.961 172.105 418.441 173.871 418.441 176.199V176.293H410.309ZM415.254 174.23C415.191 173.207 414.945 172.441 414.516 171.934C414.086 171.418 413.508 171.16 412.781 171.16C412.008 171.16 411.41 171.43 410.988 171.969C410.574 172.508 410.355 173.262 410.332 174.23H415.254ZM424.242 175.203V182H420.949V172.156C420.949 171.477 420.938 170.922 420.914 170.492C420.898 170.055 420.879 169.664 420.855 169.32H423.996C424.012 169.414 424.031 169.637 424.055 169.988C424.078 170.332 424.098 170.688 424.113 171.055C424.137 171.414 424.148 171.676 424.148 171.84H424.195C424.602 170.871 425.105 170.168 425.707 169.73C426.316 169.293 427.043 169.074 427.887 169.074C428.855 169.074 429.633 169.305 430.219 169.766C430.812 170.227 431.211 170.918 431.414 171.84H431.484C431.914 170.855 432.43 170.148 433.031 169.719C433.633 169.289 434.398 169.074 435.328 169.074C436.562 169.074 437.504 169.496 438.152 170.34C438.801 171.176 439.125 172.379 439.125 173.949V182H435.855V174.887C435.855 173.77 435.695 172.934 435.375 172.379C435.055 171.824 434.574 171.547 433.934 171.547C433.293 171.547 432.758 171.859 432.328 172.484C431.898 173.102 431.684 173.957 431.684 175.051V182H428.414V174.887C428.414 173.77 428.254 172.934 427.934 172.379C427.613 171.824 427.133 171.547 426.492 171.547C425.828 171.547 425.285 171.887 424.863 172.566C424.449 173.246 424.242 174.125 424.242 175.203ZM454.289 187.086C452.742 187.086 451.496 186.789 450.551 186.195C449.613 185.609 449.035 184.77 448.816 183.676L452.109 183.289C452.227 183.797 452.477 184.195 452.859 184.484C453.25 184.773 453.758 184.918 454.383 184.918C455.297 184.918 455.965 184.637 456.387 184.074C456.809 183.512 457.02 182.676 457.02 181.566L457.043 179.645H457.02C456.66 180.426 456.141 181.012 455.461 181.402C454.781 181.785 453.941 181.977 452.941 181.977C451.465 181.977 450.32 181.422 449.508 180.312C448.695 179.203 448.289 177.617 448.289 175.555C448.289 173.484 448.707 171.887 449.543 170.762C450.379 169.637 451.594 169.074 453.188 169.074C454.109 169.074 454.887 169.266 455.52 169.648C456.16 170.023 456.66 170.594 457.02 171.359H457.078C457.078 171.172 457.086 170.938 457.102 170.656C457.117 170.375 457.137 170.105 457.16 169.848C457.191 169.59 457.219 169.414 457.242 169.32H460.359C460.312 170.164 460.289 171.141 460.289 172.25V181.613C460.289 183.418 459.777 184.781 458.754 185.703C457.73 186.625 456.242 187.086 454.289 187.086ZM457.043 175.484C457.043 174.18 456.809 173.164 456.34 172.438C455.879 171.703 455.219 171.336 454.359 171.336C453.484 171.336 452.824 171.688 452.379 172.391C451.941 173.094 451.723 174.148 451.723 175.555C451.723 176.93 451.938 177.965 452.367 178.66C452.805 179.348 453.461 179.691 454.336 179.691C455.211 179.691 455.879 179.328 456.34 178.602C456.809 177.867 457.043 176.828 457.043 175.484ZM466.371 176.293C466.371 177.527 466.598 178.461 467.051 179.094C467.512 179.719 468.164 180.031 469.008 180.031C469.586 180.031 470.059 179.906 470.426 179.656C470.801 179.398 471.062 179.02 471.211 178.52L474.316 178.789C473.418 181.086 471.594 182.234 468.844 182.234C466.938 182.234 465.473 181.672 464.449 180.547C463.426 179.414 462.914 177.766 462.914 175.602C462.914 173.508 463.434 171.898 464.473 170.773C465.512 169.648 466.984 169.086 468.891 169.086C470.711 169.086 472.102 169.691 473.062 170.902C474.023 172.105 474.504 173.871 474.504 176.199V176.293H466.371ZM471.316 174.23C471.254 173.207 471.008 172.441 470.578 171.934C470.148 171.418 469.57 171.16 468.844 171.16C468.07 171.16 467.473 171.43 467.051 171.969C466.637 172.508 466.418 173.262 466.395 174.23H471.316ZM480.305 175.777V182H477.012V172.297C477.012 171.602 477 171.023 476.977 170.562C476.961 170.094 476.941 169.68 476.918 169.32H480.059C480.074 169.391 480.09 169.547 480.105 169.789C480.121 170.031 480.137 170.305 480.152 170.609C480.168 170.906 480.18 171.188 480.188 171.453C480.203 171.719 480.211 171.91 480.211 172.027H480.258C480.57 171.152 480.855 170.523 481.113 170.141C481.363 169.773 481.66 169.504 482.004 169.332C482.348 169.16 482.777 169.074 483.293 169.074C483.715 169.074 484.055 169.133 484.312 169.25V172.004C483.789 171.887 483.32 171.828 482.906 171.828C482.086 171.828 481.445 172.16 480.984 172.824C480.531 173.488 480.305 174.473 480.305 175.777ZM489.293 182.234C488.066 182.234 487.109 181.902 486.422 181.238C485.734 180.566 485.391 179.625 485.391 178.414C485.391 177.102 485.816 176.105 486.668 175.426C487.527 174.746 488.77 174.391 490.395 174.359L493.125 174.312V173.668C493.125 172.84 492.98 172.227 492.691 171.828C492.402 171.422 491.93 171.219 491.273 171.219C490.664 171.219 490.215 171.359 489.926 171.641C489.645 171.914 489.469 172.371 489.398 173.012L485.965 172.848C486.395 170.34 488.211 169.086 491.414 169.086C493.016 169.086 494.25 169.48 495.117 170.27C495.984 171.059 496.418 172.18 496.418 173.633V178.25C496.418 178.961 496.496 179.453 496.652 179.727C496.816 179.992 497.086 180.125 497.461 180.125C497.711 180.125 497.953 180.102 498.188 180.055V181.836C497.781 181.938 497.434 182.012 497.145 182.059C496.855 182.113 496.5 182.141 496.078 182.141C495.25 182.141 494.637 181.938 494.238 181.531C493.848 181.125 493.613 180.527 493.535 179.738H493.465C493.004 180.566 492.426 181.191 491.73 181.613C491.035 182.027 490.223 182.234 489.293 182.234ZM493.125 176.129L491.438 176.152C490.664 176.191 490.121 176.273 489.809 176.398C489.488 176.539 489.242 176.75 489.07 177.031C488.906 177.312 488.824 177.688 488.824 178.156C488.824 178.758 488.961 179.207 489.234 179.504C489.516 179.793 489.887 179.938 490.348 179.938C490.863 179.938 491.336 179.797 491.766 179.516C492.188 179.234 492.52 178.848 492.762 178.355C493.004 177.855 493.125 177.328 493.125 176.773V176.129ZM503.016 164.609V182H499.723V164.609H503.016Z" fill="#EBEBEB"/>
</svg>
