<svg width="354" height="390" viewBox="0 0 354 390" fill="none" xmlns="http://www.w3.org/2000/svg">
<rect width="354" height="118" rx="10" fill="#745930"/>
<path d="M38.3949 69.416C36.6029 69.416 35.0135 69.0427 33.6269 68.296C32.2402 67.528 31.1415 66.312 30.3309 64.648C29.5415 62.9627 29.1469 60.7333 29.1469 57.96C29.1469 55.5067 29.3815 53.5013 29.8509 51.944C30.3415 50.3867 31.0242 49.192 31.8989 48.36C32.7735 47.5067 33.7975 46.92 34.9709 46.6C36.1442 46.2587 37.4135 46.088 38.7789 46.088C39.3335 46.088 40.0162 46.1307 40.8269 46.216C41.6375 46.28 42.4482 46.376 43.2589 46.504C44.0909 46.6107 44.7735 46.7387 45.3069 46.888L44.7629 50.984C44.5069 50.9413 44.1122 50.8987 43.5789 50.856C43.0455 50.8133 42.4695 50.76 41.8509 50.696C41.2322 50.632 40.6562 50.5893 40.1229 50.568C39.6109 50.5253 39.2269 50.504 38.9709 50.504C38.0962 50.504 37.4029 50.5573 36.8909 50.664C36.4002 50.7493 36.0375 50.888 35.8029 51.08C35.5255 51.2933 35.2802 51.6667 35.0669 52.2C34.8535 52.712 34.6829 53.4373 34.5549 54.376C34.4269 55.3147 34.3629 56.5413 34.3629 58.056C34.3629 59.9333 34.5335 61.416 34.8749 62.504C35.2162 63.5707 35.5682 64.2427 35.9309 64.52C36.1655 64.6907 36.4642 64.8293 36.8269 64.936C37.1895 65.0427 37.6482 65.096 38.2029 65.096C38.8855 65.096 39.6002 65.0107 40.3469 64.84C41.1149 64.6693 41.8295 64.4773 42.4909 64.264C43.1522 64.0293 43.6962 63.8267 44.1229 63.656C44.5495 63.4853 44.7629 63.4 44.7629 63.4L46.2029 67.208C46.2029 67.208 46.0109 67.3253 45.6269 67.56C45.2429 67.7733 44.6989 68.0293 43.9949 68.328C43.2909 68.6053 42.4589 68.8507 41.4989 69.064C40.5602 69.2987 39.5255 69.416 38.3949 69.416ZM56.9021 69.416C54.8328 69.416 53.1901 69.0213 51.9741 68.232C50.7581 67.4213 49.8941 66.28 49.3821 64.808C48.8701 63.336 48.6141 61.5867 48.6141 59.56C48.6141 57.5547 48.8701 55.8267 49.3821 54.376C49.8941 52.904 50.7581 51.7733 51.9741 50.984C53.1901 50.1733 54.8328 49.768 56.9021 49.768C58.9928 49.768 60.6355 50.1733 61.8301 50.984C63.0248 51.7733 63.8675 52.904 64.3581 54.376C64.8701 55.8267 65.1261 57.5653 65.1261 59.592C65.1261 61.5973 64.8701 63.336 64.3581 64.808C63.8675 66.28 63.0248 67.4213 61.8301 68.232C60.6355 69.0213 58.9928 69.416 56.9021 69.416ZM56.9021 65.64C57.5208 65.64 58.0328 65.5547 58.4381 65.384C58.8435 65.2133 59.1635 64.904 59.3981 64.456C59.6541 64.008 59.8248 63.3893 59.9101 62.6C60.0168 61.8107 60.0701 60.808 60.0701 59.592C60.0701 58.3547 60.0168 57.3413 59.9101 56.552C59.8035 55.7627 59.6328 55.1547 59.3981 54.728C59.1635 54.28 58.8435 53.9707 58.4381 53.8C58.0328 53.6293 57.5208 53.544 56.9021 53.544C56.2835 53.544 55.7608 53.6293 55.3341 53.8C54.9288 53.9707 54.5981 54.28 54.3421 54.728C54.1075 55.1547 53.9368 55.7627 53.8301 56.552C53.7235 57.3413 53.6701 58.3547 53.6701 59.592C53.6701 60.808 53.7235 61.8107 53.8301 62.6C53.9368 63.3893 54.1075 64.008 54.3421 64.456C54.5981 64.904 54.9288 65.2133 55.3341 65.384C55.7608 65.5547 56.2835 65.64 56.9021 65.64ZM69.1999 69V50.184H72.3679L72.9439 52.072H73.1359C73.5199 51.8373 73.9465 51.592 74.4159 51.336C74.9065 51.0587 75.4185 50.8027 75.9519 50.568C76.5065 50.312 77.0932 50.1093 77.7119 49.96C78.3305 49.7893 78.9705 49.704 79.6319 49.704C80.6985 49.704 81.5625 49.928 82.2239 50.376C82.8852 50.8027 83.3972 51.3893 83.7599 52.136C84.6132 51.5813 85.5625 51.0373 86.6079 50.504C87.6745 49.9707 88.8479 49.704 90.1279 49.704C91.4505 49.704 92.4745 50.0133 93.1999 50.632C93.9252 51.2293 94.4265 52.0507 94.7039 53.096C95.0025 54.1413 95.1519 55.336 95.1519 56.68V69H90.1279V57.544C90.1279 56.6693 90.1065 56.0187 90.0639 55.592C90.0212 55.144 89.8932 54.792 89.6799 54.536C89.5519 54.3653 89.3705 54.2373 89.1359 54.152C88.9012 54.0667 88.6345 54.024 88.3359 54.024C88.0585 54.024 87.7492 54.0667 87.4079 54.152C87.0665 54.216 86.7252 54.3227 86.3839 54.472C86.0425 54.6 85.7119 54.7493 85.3919 54.92C85.0932 55.0693 84.8159 55.2293 84.5599 55.4C84.5812 55.656 84.5919 55.9227 84.5919 56.2C84.6132 56.456 84.6239 56.7227 84.6239 57V69H79.6639V57.544C79.6639 56.6693 79.6425 56.008 79.5999 55.56C79.5572 55.112 79.4292 54.76 79.2159 54.504C79.0665 54.312 78.8745 54.184 78.6399 54.12C78.4052 54.056 78.1705 54.024 77.9359 54.024C77.5519 54.024 77.1252 54.088 76.6559 54.216C76.2079 54.344 75.7599 54.5147 75.3119 54.728C74.8852 54.92 74.5012 55.1333 74.1599 55.368V69H69.1999ZM99.6336 74.312V50.184H102.802L103.378 52.104H103.538C104.007 51.7627 104.54 51.4213 105.138 51.08C105.756 50.7173 106.428 50.408 107.154 50.152C107.879 49.896 108.658 49.768 109.49 49.768C110.706 49.768 111.794 50.0987 112.754 50.76C113.735 51.4 114.503 52.424 115.058 53.832C115.612 55.2187 115.89 57.032 115.89 59.272C115.89 61.3413 115.655 63.0373 115.186 64.36C114.716 65.6827 114.087 66.7173 113.298 67.464C112.53 68.1893 111.676 68.7013 110.738 69C109.82 69.2773 108.903 69.416 107.986 69.416C107.516 69.416 107.015 69.384 106.482 69.32C105.948 69.2773 105.5 69.2347 105.138 69.192C104.775 69.1493 104.594 69.128 104.594 69.128V74.312H99.6336ZM107.794 65.384C108.284 65.384 108.668 65.352 108.946 65.288C109.223 65.224 109.468 65.1173 109.682 64.968C109.895 64.8187 110.087 64.5627 110.258 64.2C110.428 63.816 110.567 63.2293 110.674 62.44C110.78 61.6507 110.834 60.552 110.834 59.144C110.834 58.2053 110.812 57.4267 110.77 56.808C110.727 56.1893 110.663 55.688 110.578 55.304C110.492 54.92 110.375 54.632 110.226 54.44C110.098 54.248 109.916 54.0987 109.682 53.992C109.468 53.8853 109.148 53.832 108.722 53.832C108.146 53.832 107.538 53.9387 106.898 54.152C106.258 54.344 105.714 54.5573 105.266 54.792C104.818 55.0267 104.594 55.176 104.594 55.24V64.936C104.594 64.936 104.914 65.0107 105.554 65.16C106.215 65.3093 106.962 65.384 107.794 65.384ZM119.95 69V50.184H123.022L123.662 52.168H123.854C123.854 52.168 124.003 52.0507 124.302 51.816C124.622 51.56 125.038 51.2827 125.55 50.984C126.062 50.664 126.617 50.3867 127.214 50.152C127.811 49.896 128.398 49.768 128.974 49.768C129.721 49.768 130.254 49.832 130.574 49.96C130.894 50.0667 131.054 50.12 131.054 50.12L130.67 54.408C130.67 54.408 130.478 54.3973 130.094 54.376C129.731 54.3333 129.337 54.312 128.91 54.312C128.377 54.312 127.854 54.376 127.342 54.504C126.851 54.6107 126.403 54.7493 125.998 54.92C125.593 55.0907 125.23 55.272 124.91 55.464V69H119.95ZM140.996 69.416C138.927 69.416 137.284 69.0213 136.068 68.232C134.852 67.4213 133.988 66.28 133.476 64.808C132.964 63.336 132.708 61.5867 132.708 59.56C132.708 57.5547 132.964 55.8267 133.476 54.376C133.988 52.904 134.852 51.7733 136.068 50.984C137.284 50.1733 138.927 49.768 140.996 49.768C143.087 49.768 144.729 50.1733 145.924 50.984C147.119 51.7733 147.961 52.904 148.452 54.376C148.964 55.8267 149.22 57.5653 149.22 59.592C149.22 61.5973 148.964 63.336 148.452 64.808C147.961 66.28 147.119 67.4213 145.924 68.232C144.729 69.0213 143.087 69.416 140.996 69.416ZM140.996 65.64C141.615 65.64 142.127 65.5547 142.532 65.384C142.937 65.2133 143.257 64.904 143.492 64.456C143.748 64.008 143.919 63.3893 144.004 62.6C144.111 61.8107 144.164 60.808 144.164 59.592C144.164 58.3547 144.111 57.3413 144.004 56.552C143.897 55.7627 143.727 55.1547 143.492 54.728C143.257 54.28 142.937 53.9707 142.532 53.8C142.127 53.6293 141.615 53.544 140.996 53.544C140.377 53.544 139.855 53.6293 139.428 53.8C139.023 53.9707 138.692 54.28 138.436 54.728C138.201 55.1547 138.031 55.7627 137.924 56.552C137.817 57.3413 137.764 58.3547 137.764 59.592C137.764 60.808 137.817 61.8107 137.924 62.6C138.031 63.3893 138.201 64.008 138.436 64.456C138.692 64.904 139.023 65.2133 139.428 65.384C139.855 65.5547 140.377 65.64 140.996 65.64ZM153.294 69V50.184H156.462L157.038 52.072H157.23C157.614 51.8373 158.04 51.592 158.51 51.336C159 51.0587 159.512 50.8027 160.046 50.568C160.6 50.312 161.187 50.1093 161.806 49.96C162.424 49.7893 163.064 49.704 163.726 49.704C164.792 49.704 165.656 49.928 166.318 50.376C166.979 50.8027 167.491 51.3893 167.854 52.136C168.707 51.5813 169.656 51.0373 170.702 50.504C171.768 49.9707 172.942 49.704 174.222 49.704C175.544 49.704 176.568 50.0133 177.294 50.632C178.019 51.2293 178.52 52.0507 178.798 53.096C179.096 54.1413 179.246 55.336 179.246 56.68V69H174.222V57.544C174.222 56.6693 174.2 56.0187 174.158 55.592C174.115 55.144 173.987 54.792 173.774 54.536C173.646 54.3653 173.464 54.2373 173.23 54.152C172.995 54.0667 172.728 54.024 172.43 54.024C172.152 54.024 171.843 54.0667 171.502 54.152C171.16 54.216 170.819 54.3227 170.478 54.472C170.136 54.6 169.806 54.7493 169.486 54.92C169.187 55.0693 168.91 55.2293 168.654 55.4C168.675 55.656 168.686 55.9227 168.686 56.2C168.707 56.456 168.718 56.7227 168.718 57V69H163.758V57.544C163.758 56.6693 163.736 56.008 163.694 55.56C163.651 55.112 163.523 54.76 163.31 54.504C163.16 54.312 162.968 54.184 162.734 54.12C162.499 54.056 162.264 54.024 162.03 54.024C161.646 54.024 161.219 54.088 160.75 54.216C160.302 54.344 159.854 54.5147 159.406 54.728C158.979 54.92 158.595 55.1333 158.254 55.368V69H153.294ZM191.663 69.448C189.935 69.448 188.41 69.128 187.087 68.488C185.786 67.848 184.773 66.8027 184.047 65.352C183.322 63.9013 182.959 61.9707 182.959 59.56C182.959 57.0427 183.343 55.08 184.111 53.672C184.879 52.2427 185.914 51.2293 187.215 50.632C188.517 50.0347 189.978 49.736 191.599 49.736C193.263 49.736 194.671 50.024 195.823 50.6C196.975 51.176 197.85 52.1147 198.447 53.416C199.066 54.7173 199.375 56.4667 199.375 58.664V61.32H185.743L187.983 60.616C187.983 61.384 188.015 62.056 188.079 62.632C188.143 63.1867 188.25 63.656 188.399 64.04C188.549 64.4027 188.741 64.6907 188.975 64.904C189.189 65.096 189.455 65.2453 189.775 65.352C190.117 65.4587 190.554 65.512 191.087 65.512C191.663 65.512 192.303 65.4587 193.007 65.352C193.711 65.224 194.394 65.0747 195.055 64.904C195.738 64.7333 196.325 64.584 196.815 64.456C197.306 64.3067 197.637 64.2 197.807 64.136L199.023 67.72C198.831 67.8053 198.362 67.9973 197.615 68.296C196.89 68.5733 196.005 68.8293 194.959 69.064C193.935 69.32 192.837 69.448 191.663 69.448ZM187.983 58.44L185.775 57.768L196.559 57.576L194.319 58.28C194.319 57.256 194.277 56.4133 194.191 55.752C194.106 55.0907 193.957 54.6213 193.743 54.344C193.594 54.1733 193.37 54.0133 193.071 53.864C192.773 53.7147 192.282 53.64 191.599 53.64C190.789 53.64 190.181 53.7253 189.775 53.896C189.37 54.0453 189.061 54.2373 188.847 54.472C188.271 55.0693 187.983 56.392 187.983 58.44ZM209.178 69.416C208.047 69.416 207.077 69.2453 206.266 68.904C205.477 68.5627 204.869 67.912 204.442 66.952C204.037 65.9707 203.834 64.552 203.834 62.696V54.824H201.658V51.72L204.058 51.272L204.794 46.824H208.858V51.112H212.698V54.92H208.794V62.824C208.794 63.5493 208.837 64.0827 208.922 64.424C209.029 64.7653 209.178 64.9787 209.37 65.064C209.583 65.1493 209.85 65.192 210.17 65.192C210.49 65.192 210.842 65.1813 211.226 65.16C211.61 65.1173 211.941 65.0853 212.218 65.064C212.495 65.0427 212.634 65.032 212.634 65.032V69.064C212.634 69.064 212.293 69.1173 211.61 69.224C210.927 69.352 210.117 69.416 209.178 69.416ZM216.23 69V50.184H221.19V69H216.23ZM216.102 47.624V44.168H221.318V47.624H216.102ZM226.2 69V50.184H229.368L229.944 52.072H230.136C230.52 51.8373 230.947 51.592 231.416 51.336C231.907 51.0587 232.419 50.8027 232.952 50.568C233.507 50.312 234.093 50.1093 234.712 49.96C235.331 49.7893 235.971 49.704 236.632 49.704C237.699 49.704 238.563 49.928 239.224 50.376C239.885 50.8027 240.397 51.3893 240.76 52.136C241.613 51.5813 242.563 51.0373 243.608 50.504C244.675 49.9707 245.848 49.704 247.128 49.704C248.451 49.704 249.475 50.0133 250.2 50.632C250.925 51.2293 251.427 52.0507 251.704 53.096C252.003 54.1413 252.152 55.336 252.152 56.68V69H247.128V57.544C247.128 56.6693 247.107 56.0187 247.064 55.592C247.021 55.144 246.893 54.792 246.68 54.536C246.552 54.3653 246.371 54.2373 246.136 54.152C245.901 54.0667 245.635 54.024 245.336 54.024C245.059 54.024 244.749 54.0667 244.408 54.152C244.067 54.216 243.725 54.3227 243.384 54.472C243.043 54.6 242.712 54.7493 242.392 54.92C242.093 55.0693 241.816 55.2293 241.56 55.4C241.581 55.656 241.592 55.9227 241.592 56.2C241.613 56.456 241.624 56.7227 241.624 57V69H236.664V57.544C236.664 56.6693 236.643 56.008 236.6 55.56C236.557 55.112 236.429 54.76 236.216 54.504C236.067 54.312 235.875 54.184 235.64 54.12C235.405 54.056 235.171 54.024 234.936 54.024C234.552 54.024 234.125 54.088 233.656 54.216C233.208 54.344 232.76 54.5147 232.312 54.728C231.885 54.92 231.501 55.1333 231.16 55.368V69H226.2ZM264.57 69.448C262.842 69.448 261.316 69.128 259.994 68.488C258.692 67.848 257.679 66.8027 256.954 65.352C256.228 63.9013 255.866 61.9707 255.866 59.56C255.866 57.0427 256.25 55.08 257.018 53.672C257.786 52.2427 258.82 51.2293 260.122 50.632C261.423 50.0347 262.884 49.736 264.506 49.736C266.17 49.736 267.578 50.024 268.73 50.6C269.882 51.176 270.756 52.1147 271.354 53.416C271.972 54.7173 272.282 56.4667 272.282 58.664V61.32H258.65L260.89 60.616C260.89 61.384 260.922 62.056 260.986 62.632C261.05 63.1867 261.156 63.656 261.306 64.04C261.455 64.4027 261.647 64.6907 261.882 64.904C262.095 65.096 262.362 65.2453 262.682 65.352C263.023 65.4587 263.46 65.512 263.994 65.512C264.57 65.512 265.21 65.4587 265.914 65.352C266.618 65.224 267.3 65.0747 267.962 64.904C268.644 64.7333 269.231 64.584 269.722 64.456C270.212 64.3067 270.543 64.2 270.714 64.136L271.93 67.72C271.738 67.8053 271.268 67.9973 270.522 68.296C269.796 68.5733 268.911 68.8293 267.866 69.064C266.842 69.32 265.743 69.448 264.57 69.448ZM260.89 58.44L258.682 57.768L269.466 57.576L267.226 58.28C267.226 57.256 267.183 56.4133 267.098 55.752C267.012 55.0907 266.863 54.6213 266.65 54.344C266.5 54.1733 266.276 54.0133 265.978 53.864C265.679 53.7147 265.188 53.64 264.506 53.64C263.695 53.64 263.087 53.7253 262.682 53.896C262.276 54.0453 261.967 54.2373 261.754 54.472C261.178 55.0693 260.89 56.392 260.89 58.44ZM276.356 69V50.184H279.524L280.1 52.072H280.292C280.719 51.816 281.177 51.56 281.668 51.304C282.18 51.0267 282.724 50.7707 283.3 50.536C283.876 50.3013 284.484 50.12 285.124 49.992C285.764 49.8427 286.436 49.768 287.14 49.768C288.463 49.768 289.465 50.0667 290.148 50.664C290.831 51.2613 291.3 52.0827 291.556 53.128C291.812 54.1733 291.94 55.3573 291.94 56.68V69H286.98V57.608C286.98 56.7333 286.959 56.072 286.916 55.624C286.873 55.176 286.745 54.824 286.532 54.568C286.404 54.3973 286.233 54.28 286.02 54.216C285.807 54.1307 285.551 54.088 285.252 54.088C284.847 54.088 284.399 54.152 283.908 54.28C283.439 54.408 282.969 54.5787 282.5 54.792C282.052 54.984 281.657 55.1973 281.316 55.432V69H276.356ZM302.303 69.416C301.172 69.416 300.202 69.2453 299.391 68.904C298.602 68.5627 297.994 67.912 297.567 66.952C297.162 65.9707 296.959 64.552 296.959 62.696V54.824H294.783V51.72L297.183 51.272L297.919 46.824H301.983V51.112H305.823V54.92H301.919V62.824C301.919 63.5493 301.962 64.0827 302.047 64.424C302.154 64.7653 302.303 64.9787 302.495 65.064C302.708 65.1493 302.975 65.192 303.295 65.192C303.615 65.192 303.967 65.1813 304.351 65.16C304.735 65.1173 305.066 65.0853 305.343 65.064C305.62 65.0427 305.759 65.032 305.759 65.032V69.064C305.759 69.064 305.418 69.1173 304.735 69.224C304.052 69.352 303.242 69.416 302.303 69.416ZM316.683 69.416C314.614 69.416 312.971 69.0213 311.755 68.232C310.539 67.4213 309.675 66.28 309.163 64.808C308.651 63.336 308.395 61.5867 308.395 59.56C308.395 57.5547 308.651 55.8267 309.163 54.376C309.675 52.904 310.539 51.7733 311.755 50.984C312.971 50.1733 314.614 49.768 316.683 49.768C318.774 49.768 320.417 50.1733 321.611 50.984C322.806 51.7733 323.649 52.904 324.139 54.376C324.651 55.8267 324.907 57.5653 324.907 59.592C324.907 61.5973 324.651 63.336 324.139 64.808C323.649 66.28 322.806 67.4213 321.611 68.232C320.417 69.0213 318.774 69.416 316.683 69.416ZM316.683 65.64C317.302 65.64 317.814 65.5547 318.219 65.384C318.625 65.2133 318.945 64.904 319.179 64.456C319.435 64.008 319.606 63.3893 319.691 62.6C319.798 61.8107 319.851 60.808 319.851 59.592C319.851 58.3547 319.798 57.3413 319.691 56.552C319.585 55.7627 319.414 55.1547 319.179 54.728C318.945 54.28 318.625 53.9707 318.219 53.8C317.814 53.6293 317.302 53.544 316.683 53.544C316.065 53.544 315.542 53.6293 315.115 53.8C314.71 53.9707 314.379 54.28 314.123 54.728C313.889 55.1547 313.718 55.7627 313.611 56.552C313.505 57.3413 313.451 58.3547 313.451 59.592C313.451 60.808 313.505 61.8107 313.611 62.6C313.718 63.3893 313.889 64.008 314.123 64.456C314.379 64.904 314.71 65.2133 315.115 65.384C315.542 65.5547 316.065 65.64 316.683 65.64Z" fill="white"/>
<rect y="170" width="354" height="220" rx="10" fill="#745930"/>
<path d="M66.2283 238.364C64.6603 238.364 63.2697 238.037 62.0563 237.384C60.843 236.712 59.8817 235.648 59.1723 234.192C58.4817 232.717 58.1363 230.767 58.1363 228.34C58.1363 226.193 58.3417 224.439 58.7523 223.076C59.1817 221.713 59.779 220.668 60.5443 219.94C61.3097 219.193 62.2057 218.68 63.2323 218.4C64.259 218.101 65.3697 217.952 66.5643 217.952C67.0497 217.952 67.647 217.989 68.3563 218.064C69.0657 218.12 69.775 218.204 70.4843 218.316C71.2123 218.409 71.8097 218.521 72.2763 218.652L71.8003 222.236C71.5763 222.199 71.231 222.161 70.7643 222.124C70.2977 222.087 69.7937 222.04 69.2523 221.984C68.711 221.928 68.207 221.891 67.7403 221.872C67.2923 221.835 66.9563 221.816 66.7323 221.816C65.967 221.816 65.3603 221.863 64.9123 221.956C64.483 222.031 64.1657 222.152 63.9603 222.32C63.7177 222.507 63.503 222.833 63.3163 223.3C63.1297 223.748 62.9803 224.383 62.8683 225.204C62.7563 226.025 62.7003 227.099 62.7003 228.424C62.7003 230.067 62.8497 231.364 63.1483 232.316C63.447 233.249 63.755 233.837 64.0723 234.08C64.2777 234.229 64.539 234.351 64.8563 234.444C65.1737 234.537 65.575 234.584 66.0603 234.584C66.6577 234.584 67.283 234.509 67.9363 234.36C68.6083 234.211 69.2337 234.043 69.8123 233.856C70.391 233.651 70.867 233.473 71.2403 233.324C71.6137 233.175 71.8003 233.1 71.8003 233.1L73.0603 236.432C73.0603 236.432 72.8923 236.535 72.5563 236.74C72.2203 236.927 71.7443 237.151 71.1283 237.412C70.5123 237.655 69.7843 237.869 68.9443 238.056C68.123 238.261 67.2177 238.364 66.2283 238.364ZM82.4222 238.364C80.6115 238.364 79.1742 238.019 78.1102 237.328C77.0462 236.619 76.2902 235.62 75.8422 234.332C75.3942 233.044 75.1702 231.513 75.1702 229.74C75.1702 227.985 75.3942 226.473 75.8422 225.204C76.2902 223.916 77.0462 222.927 78.1102 222.236C79.1742 221.527 80.6115 221.172 82.4222 221.172C84.2515 221.172 85.6888 221.527 86.7342 222.236C87.7795 222.927 88.5168 223.916 88.9462 225.204C89.3942 226.473 89.6182 227.995 89.6182 229.768C89.6182 231.523 89.3942 233.044 88.9462 234.332C88.5168 235.62 87.7795 236.619 86.7342 237.328C85.6888 238.019 84.2515 238.364 82.4222 238.364ZM82.4222 235.06C82.9635 235.06 83.4115 234.985 83.7662 234.836C84.1208 234.687 84.4008 234.416 84.6062 234.024C84.8302 233.632 84.9795 233.091 85.0542 232.4C85.1475 231.709 85.1942 230.832 85.1942 229.768C85.1942 228.685 85.1475 227.799 85.0542 227.108C84.9608 226.417 84.8115 225.885 84.6062 225.512C84.4008 225.12 84.1208 224.849 83.7662 224.7C83.4115 224.551 82.9635 224.476 82.4222 224.476C81.8808 224.476 81.4235 224.551 81.0502 224.7C80.6955 224.849 80.4062 225.12 80.1822 225.512C79.9768 225.885 79.8275 226.417 79.7342 227.108C79.6408 227.799 79.5942 228.685 79.5942 229.768C79.5942 230.832 79.6408 231.709 79.7342 232.4C79.8275 233.091 79.9768 233.632 80.1822 234.024C80.4062 234.416 80.6955 234.687 81.0502 234.836C81.4235 234.985 81.8808 235.06 82.4222 235.06ZM93.1827 238V221.536H95.9547L96.4587 223.188H96.6267C96.9627 222.983 97.336 222.768 97.7467 222.544C98.176 222.301 98.624 222.077 99.0907 221.872C99.576 221.648 100.089 221.471 100.631 221.34C101.172 221.191 101.732 221.116 102.311 221.116C103.244 221.116 104 221.312 104.579 221.704C105.157 222.077 105.605 222.591 105.923 223.244C106.669 222.759 107.5 222.283 108.415 221.816C109.348 221.349 110.375 221.116 111.495 221.116C112.652 221.116 113.548 221.387 114.183 221.928C114.817 222.451 115.256 223.169 115.499 224.084C115.76 224.999 115.891 226.044 115.891 227.22V238H111.495V227.976C111.495 227.211 111.476 226.641 111.439 226.268C111.401 225.876 111.289 225.568 111.103 225.344C110.991 225.195 110.832 225.083 110.627 225.008C110.421 224.933 110.188 224.896 109.927 224.896C109.684 224.896 109.413 224.933 109.115 225.008C108.816 225.064 108.517 225.157 108.219 225.288C107.92 225.4 107.631 225.531 107.351 225.68C107.089 225.811 106.847 225.951 106.623 226.1C106.641 226.324 106.651 226.557 106.651 226.8C106.669 227.024 106.679 227.257 106.679 227.5V238H102.339V227.976C102.339 227.211 102.32 226.632 102.283 226.24C102.245 225.848 102.133 225.54 101.947 225.316C101.816 225.148 101.648 225.036 101.443 224.98C101.237 224.924 101.032 224.896 100.827 224.896C100.491 224.896 100.117 224.952 99.7067 225.064C99.3147 225.176 98.9227 225.325 98.5307 225.512C98.1574 225.68 97.8214 225.867 97.5227 226.072V238H93.1827ZM119.812 242.648V221.536H122.584L123.088 223.216H123.228C123.639 222.917 124.106 222.619 124.628 222.32C125.17 222.003 125.758 221.732 126.392 221.508C127.027 221.284 127.708 221.172 128.436 221.172C129.5 221.172 130.452 221.461 131.292 222.04C132.151 222.6 132.823 223.496 133.308 224.728C133.794 225.941 134.036 227.528 134.036 229.488C134.036 231.299 133.831 232.783 133.42 233.94C133.01 235.097 132.459 236.003 131.768 236.656C131.096 237.291 130.35 237.739 129.528 238C128.726 238.243 127.923 238.364 127.12 238.364C126.71 238.364 126.271 238.336 125.804 238.28C125.338 238.243 124.946 238.205 124.628 238.168C124.311 238.131 124.152 238.112 124.152 238.112V242.648H119.812ZM126.952 234.836C127.382 234.836 127.718 234.808 127.96 234.752C128.203 234.696 128.418 234.603 128.604 234.472C128.791 234.341 128.959 234.117 129.108 233.8C129.258 233.464 129.379 232.951 129.472 232.26C129.566 231.569 129.612 230.608 129.612 229.376C129.612 228.555 129.594 227.873 129.556 227.332C129.519 226.791 129.463 226.352 129.388 226.016C129.314 225.68 129.211 225.428 129.08 225.26C128.968 225.092 128.81 224.961 128.604 224.868C128.418 224.775 128.138 224.728 127.764 224.728C127.26 224.728 126.728 224.821 126.168 225.008C125.608 225.176 125.132 225.363 124.74 225.568C124.348 225.773 124.152 225.904 124.152 225.96V234.444C124.152 234.444 124.432 234.509 124.992 234.64C125.571 234.771 126.224 234.836 126.952 234.836ZM137.589 238V221.536H140.277L140.837 223.272H141.005C141.005 223.272 141.136 223.169 141.397 222.964C141.677 222.74 142.041 222.497 142.489 222.236C142.937 221.956 143.422 221.713 143.945 221.508C144.468 221.284 144.981 221.172 145.485 221.172C146.138 221.172 146.605 221.228 146.885 221.34C147.165 221.433 147.305 221.48 147.305 221.48L146.969 225.232C146.969 225.232 146.801 225.223 146.465 225.204C146.148 225.167 145.802 225.148 145.429 225.148C144.962 225.148 144.505 225.204 144.057 225.316C143.628 225.409 143.236 225.531 142.881 225.68C142.526 225.829 142.209 225.988 141.929 226.156V238H137.589ZM156.004 238.364C154.194 238.364 152.756 238.019 151.692 237.328C150.628 236.619 149.872 235.62 149.424 234.332C148.976 233.044 148.752 231.513 148.752 229.74C148.752 227.985 148.976 226.473 149.424 225.204C149.872 223.916 150.628 222.927 151.692 222.236C152.756 221.527 154.194 221.172 156.004 221.172C157.834 221.172 159.271 221.527 160.316 222.236C161.362 222.927 162.099 223.916 162.528 225.204C162.976 226.473 163.2 227.995 163.2 229.768C163.2 231.523 162.976 233.044 162.528 234.332C162.099 235.62 161.362 236.619 160.316 237.328C159.271 238.019 157.834 238.364 156.004 238.364ZM156.004 235.06C156.546 235.06 156.994 234.985 157.348 234.836C157.703 234.687 157.983 234.416 158.188 234.024C158.412 233.632 158.562 233.091 158.636 232.4C158.73 231.709 158.776 230.832 158.776 229.768C158.776 228.685 158.73 227.799 158.636 227.108C158.543 226.417 158.394 225.885 158.188 225.512C157.983 225.12 157.703 224.849 157.348 224.7C156.994 224.551 156.546 224.476 156.004 224.476C155.463 224.476 155.006 224.551 154.632 224.7C154.278 224.849 153.988 225.12 153.764 225.512C153.559 225.885 153.41 226.417 153.316 227.108C153.223 227.799 153.176 228.685 153.176 229.768C153.176 230.832 153.223 231.709 153.316 232.4C153.41 233.091 153.559 233.632 153.764 234.024C153.988 234.416 154.278 234.687 154.632 234.836C155.006 234.985 155.463 235.06 156.004 235.06ZM166.765 238V221.536H169.537L170.041 223.188H170.209C170.545 222.983 170.918 222.768 171.329 222.544C171.758 222.301 172.206 222.077 172.673 221.872C173.158 221.648 173.671 221.471 174.213 221.34C174.754 221.191 175.314 221.116 175.893 221.116C176.826 221.116 177.582 221.312 178.161 221.704C178.739 222.077 179.187 222.591 179.505 223.244C180.251 222.759 181.082 222.283 181.997 221.816C182.93 221.349 183.957 221.116 185.077 221.116C186.234 221.116 187.13 221.387 187.765 221.928C188.399 222.451 188.838 223.169 189.081 224.084C189.342 224.999 189.473 226.044 189.473 227.22V238H185.077V227.976C185.077 227.211 185.058 226.641 185.021 226.268C184.983 225.876 184.871 225.568 184.685 225.344C184.573 225.195 184.414 225.083 184.209 225.008C184.003 224.933 183.77 224.896 183.509 224.896C183.266 224.896 182.995 224.933 182.697 225.008C182.398 225.064 182.099 225.157 181.801 225.288C181.502 225.4 181.213 225.531 180.933 225.68C180.671 225.811 180.429 225.951 180.205 226.1C180.223 226.324 180.233 226.557 180.233 226.8C180.251 227.024 180.261 227.257 180.261 227.5V238H175.921V227.976C175.921 227.211 175.902 226.632 175.865 226.24C175.827 225.848 175.715 225.54 175.529 225.316C175.398 225.148 175.23 225.036 175.025 224.98C174.819 224.924 174.614 224.896 174.409 224.896C174.073 224.896 173.699 224.952 173.289 225.064C172.897 225.176 172.505 225.325 172.113 225.512C171.739 225.68 171.403 225.867 171.105 226.072V238H166.765ZM193.506 238V221.536H197.846V238H193.506ZM193.394 219.296V216.272H197.958V219.296H193.394ZM207.914 238.364C207.055 238.364 206.224 238.28 205.422 238.112C204.619 237.944 203.9 237.757 203.266 237.552C202.631 237.347 202.127 237.16 201.754 236.992C201.38 236.824 201.194 236.74 201.194 236.74L202.258 233.324C202.258 233.324 202.444 233.399 202.818 233.548C203.21 233.697 203.714 233.875 204.33 234.08C204.946 234.285 205.59 234.463 206.262 234.612C206.952 234.761 207.587 234.836 208.166 234.836C208.483 234.836 208.735 234.808 208.922 234.752C209.127 234.696 209.286 234.631 209.398 234.556C209.547 234.444 209.659 234.285 209.734 234.08C209.827 233.875 209.874 233.651 209.874 233.408C209.874 232.941 209.724 232.587 209.426 232.344C209.127 232.083 208.726 231.868 208.222 231.7C207.736 231.532 207.186 231.364 206.57 231.196C205.972 231.009 205.366 230.813 204.75 230.608C204.134 230.384 203.564 230.095 203.042 229.74C202.538 229.367 202.127 228.891 201.81 228.312C201.492 227.733 201.334 226.987 201.334 226.072C201.334 224.597 201.828 223.412 202.818 222.516C203.807 221.62 205.394 221.172 207.578 221.172C208.399 221.172 209.192 221.228 209.958 221.34C210.723 221.452 211.404 221.583 212.002 221.732C212.599 221.881 213.066 222.012 213.402 222.124L212.758 225.484C212.758 225.484 212.58 225.447 212.226 225.372C211.871 225.279 211.414 225.176 210.854 225.064C210.294 224.952 209.696 224.859 209.062 224.784C208.427 224.691 207.83 224.644 207.27 224.644C206.803 224.644 206.476 224.672 206.29 224.728C206.103 224.784 205.963 224.849 205.87 224.924C205.795 224.98 205.72 225.073 205.646 225.204C205.59 225.316 205.562 225.475 205.562 225.68C205.562 226.091 205.711 226.427 206.01 226.688C206.308 226.931 206.7 227.136 207.186 227.304C207.69 227.472 208.231 227.64 208.81 227.808C209.407 227.976 210.014 228.163 210.63 228.368C211.264 228.555 211.843 228.825 212.366 229.18C212.888 229.516 213.308 229.983 213.626 230.58C213.943 231.159 214.102 231.924 214.102 232.876C214.102 234.519 213.57 235.844 212.506 236.852C211.442 237.86 209.911 238.364 207.914 238.364ZM222.953 238.364C222.094 238.364 221.263 238.28 220.461 238.112C219.658 237.944 218.939 237.757 218.305 237.552C217.67 237.347 217.166 237.16 216.793 236.992C216.419 236.824 216.233 236.74 216.233 236.74L217.297 233.324C217.297 233.324 217.483 233.399 217.857 233.548C218.249 233.697 218.753 233.875 219.369 234.08C219.985 234.285 220.629 234.463 221.301 234.612C221.991 234.761 222.626 234.836 223.205 234.836C223.522 234.836 223.774 234.808 223.961 234.752C224.166 234.696 224.325 234.631 224.437 234.556C224.586 234.444 224.698 234.285 224.773 234.08C224.866 233.875 224.913 233.651 224.913 233.408C224.913 232.941 224.763 232.587 224.465 232.344C224.166 232.083 223.765 231.868 223.261 231.7C222.775 231.532 222.225 231.364 221.609 231.196C221.011 231.009 220.405 230.813 219.789 230.608C219.173 230.384 218.603 230.095 218.081 229.74C217.577 229.367 217.166 228.891 216.849 228.312C216.531 227.733 216.373 226.987 216.373 226.072C216.373 224.597 216.867 223.412 217.857 222.516C218.846 221.62 220.433 221.172 222.617 221.172C223.438 221.172 224.231 221.228 224.997 221.34C225.762 221.452 226.443 221.583 227.041 221.732C227.638 221.881 228.105 222.012 228.441 222.124L227.797 225.484C227.797 225.484 227.619 225.447 227.265 225.372C226.91 225.279 226.453 225.176 225.893 225.064C225.333 224.952 224.735 224.859 224.101 224.784C223.466 224.691 222.869 224.644 222.309 224.644C221.842 224.644 221.515 224.672 221.329 224.728C221.142 224.784 221.002 224.849 220.909 224.924C220.834 224.98 220.759 225.073 220.685 225.204C220.629 225.316 220.601 225.475 220.601 225.68C220.601 226.091 220.75 226.427 221.049 226.688C221.347 226.931 221.739 227.136 222.225 227.304C222.729 227.472 223.27 227.64 223.849 227.808C224.446 227.976 225.053 228.163 225.669 228.368C226.303 228.555 226.882 228.825 227.405 229.18C227.927 229.516 228.347 229.983 228.665 230.58C228.982 231.159 229.141 231.924 229.141 232.876C229.141 234.519 228.609 235.844 227.545 236.852C226.481 237.86 224.95 238.364 222.953 238.364ZM238.692 238.364C236.881 238.364 235.444 238.019 234.38 237.328C233.316 236.619 232.56 235.62 232.112 234.332C231.664 233.044 231.44 231.513 231.44 229.74C231.44 227.985 231.664 226.473 232.112 225.204C232.56 223.916 233.316 222.927 234.38 222.236C235.444 221.527 236.881 221.172 238.692 221.172C240.521 221.172 241.958 221.527 243.004 222.236C244.049 222.927 244.786 223.916 245.216 225.204C245.664 226.473 245.888 227.995 245.888 229.768C245.888 231.523 245.664 233.044 245.216 234.332C244.786 235.62 244.049 236.619 243.004 237.328C241.958 238.019 240.521 238.364 238.692 238.364ZM238.692 235.06C239.233 235.06 239.681 234.985 240.036 234.836C240.39 234.687 240.67 234.416 240.876 234.024C241.1 233.632 241.249 233.091 241.324 232.4C241.417 231.709 241.464 230.832 241.464 229.768C241.464 228.685 241.417 227.799 241.324 227.108C241.23 226.417 241.081 225.885 240.876 225.512C240.67 225.12 240.39 224.849 240.036 224.7C239.681 224.551 239.233 224.476 238.692 224.476C238.15 224.476 237.693 224.551 237.32 224.7C236.965 224.849 236.676 225.12 236.452 225.512C236.246 225.885 236.097 226.417 236.004 227.108C235.91 227.799 235.864 228.685 235.864 229.768C235.864 230.832 235.91 231.709 236.004 232.4C236.097 233.091 236.246 233.632 236.452 234.024C236.676 234.416 236.965 234.687 237.32 234.836C237.693 234.985 238.15 235.06 238.692 235.06ZM263.393 238.392C261.881 238.392 260.546 238.112 259.389 237.552C258.25 236.992 257.364 236.077 256.729 234.808C256.094 233.539 255.777 231.849 255.777 229.74C255.777 227.537 256.113 225.82 256.785 224.588C257.457 223.337 258.362 222.451 259.501 221.928C260.64 221.405 261.918 221.144 263.337 221.144C264.793 221.144 266.025 221.396 267.033 221.9C268.041 222.404 268.806 223.225 269.329 224.364C269.87 225.503 270.141 227.033 270.141 228.956V231.28H258.213L260.173 230.664C260.173 231.336 260.201 231.924 260.257 232.428C260.313 232.913 260.406 233.324 260.537 233.66C260.668 233.977 260.836 234.229 261.041 234.416C261.228 234.584 261.461 234.715 261.741 234.808C262.04 234.901 262.422 234.948 262.889 234.948C263.393 234.948 263.953 234.901 264.569 234.808C265.185 234.696 265.782 234.565 266.361 234.416C266.958 234.267 267.472 234.136 267.901 234.024C268.33 233.893 268.62 233.8 268.769 233.744L269.833 236.88C269.665 236.955 269.254 237.123 268.601 237.384C267.966 237.627 267.192 237.851 266.277 238.056C265.381 238.28 264.42 238.392 263.393 238.392ZM260.173 228.76L258.241 228.172L267.677 228.004L265.717 228.62C265.717 227.724 265.68 226.987 265.605 226.408C265.53 225.829 265.4 225.419 265.213 225.176C265.082 225.027 264.886 224.887 264.625 224.756C264.364 224.625 263.934 224.56 263.337 224.56C262.628 224.56 262.096 224.635 261.741 224.784C261.386 224.915 261.116 225.083 260.929 225.288C260.425 225.811 260.173 226.968 260.173 228.76ZM273.706 238V221.536H276.478L276.982 223.188H277.15C277.486 222.983 277.859 222.768 278.27 222.544C278.699 222.301 279.147 222.077 279.614 221.872C280.099 221.648 280.613 221.471 281.154 221.34C281.695 221.191 282.255 221.116 282.834 221.116C283.767 221.116 284.523 221.312 285.102 221.704C285.681 222.077 286.129 222.591 286.446 223.244C287.193 222.759 288.023 222.283 288.938 221.816C289.871 221.349 290.898 221.116 292.018 221.116C293.175 221.116 294.071 221.387 294.706 221.928C295.341 222.451 295.779 223.169 296.022 224.084C296.283 224.999 296.414 226.044 296.414 227.22V238H292.018V227.976C292.018 227.211 291.999 226.641 291.962 226.268C291.925 225.876 291.813 225.568 291.626 225.344C291.514 225.195 291.355 225.083 291.15 225.008C290.945 224.933 290.711 224.896 290.45 224.896C290.207 224.896 289.937 224.933 289.638 225.008C289.339 225.064 289.041 225.157 288.742 225.288C288.443 225.4 288.154 225.531 287.874 225.68C287.613 225.811 287.37 225.951 287.146 226.1C287.165 226.324 287.174 226.557 287.174 226.8C287.193 227.024 287.202 227.257 287.202 227.5V238H282.862V227.976C282.862 227.211 282.843 226.632 282.806 226.24C282.769 225.848 282.657 225.54 282.47 225.316C282.339 225.148 282.171 225.036 281.966 224.98C281.761 224.924 281.555 224.896 281.35 224.896C281.014 224.896 280.641 224.952 280.23 225.064C279.838 225.176 279.446 225.325 279.054 225.512C278.681 225.68 278.345 225.867 278.046 226.072V238H273.706ZM61.0355 272.392C59.5235 272.392 58.1889 272.112 57.0315 271.552C55.8929 270.992 55.0062 270.077 54.3715 268.808C53.7369 267.539 53.4195 265.849 53.4195 263.74C53.4195 261.537 53.7555 259.82 54.4275 258.588C55.0995 257.337 56.0049 256.451 57.1435 255.928C58.2822 255.405 59.5609 255.144 60.9795 255.144C62.4355 255.144 63.6675 255.396 64.6755 255.9C65.6835 256.404 66.4489 257.225 66.9715 258.364C67.5129 259.503 67.7835 261.033 67.7835 262.956V265.28H55.8555L57.8155 264.664C57.8155 265.336 57.8435 265.924 57.8995 266.428C57.9555 266.913 58.0489 267.324 58.1795 267.66C58.3102 267.977 58.4782 268.229 58.6835 268.416C58.8702 268.584 59.1035 268.715 59.3835 268.808C59.6822 268.901 60.0649 268.948 60.5315 268.948C61.0355 268.948 61.5955 268.901 62.2115 268.808C62.8275 268.696 63.4249 268.565 64.0035 268.416C64.6009 268.267 65.1142 268.136 65.5435 268.024C65.9729 267.893 66.2622 267.8 66.4115 267.744L67.4755 270.88C67.3075 270.955 66.8969 271.123 66.2435 271.384C65.6089 271.627 64.8342 271.851 63.9195 272.056C63.0235 272.28 62.0622 272.392 61.0355 272.392ZM57.8155 262.76L55.8835 262.172L65.3195 262.004L63.3595 262.62C63.3595 261.724 63.3222 260.987 63.2475 260.408C63.1729 259.829 63.0422 259.419 62.8555 259.176C62.7249 259.027 62.5289 258.887 62.2675 258.756C62.0062 258.625 61.5769 258.56 60.9795 258.56C60.2702 258.56 59.7382 258.635 59.3835 258.784C59.0289 258.915 58.7582 259.083 58.5715 259.288C58.0675 259.811 57.8155 260.968 57.8155 262.76ZM71.3487 272V255.536H74.1207L74.6247 257.188H74.7927C75.1661 256.964 75.5674 256.74 75.9967 256.516C76.4447 256.273 76.9207 256.049 77.4247 255.844C77.9287 255.639 78.4607 255.48 79.0207 255.368C79.5807 255.237 80.1687 255.172 80.7847 255.172C81.9421 255.172 82.8194 255.433 83.4167 255.956C84.0141 256.479 84.4247 257.197 84.6487 258.112C84.8727 259.027 84.9847 260.063 84.9847 261.22V272H80.6447V262.032C80.6447 261.267 80.6261 260.688 80.5887 260.296C80.5514 259.904 80.4394 259.596 80.2527 259.372C80.1407 259.223 79.9914 259.12 79.8047 259.064C79.6181 258.989 79.3941 258.952 79.1327 258.952C78.7781 258.952 78.3861 259.008 77.9567 259.12C77.5461 259.232 77.1354 259.381 76.7247 259.568C76.3327 259.736 75.9874 259.923 75.6887 260.128V272H71.3487ZM94.0521 272.364C93.0628 272.364 92.2135 272.215 91.5041 271.916C90.8135 271.617 90.2815 271.048 89.9081 270.208C89.5535 269.349 89.3761 268.108 89.3761 266.484V259.596H87.4721V256.88L89.5721 256.488L90.2161 252.596H93.7721V256.348H97.1321V259.68H93.7161V266.596C93.7161 267.231 93.7535 267.697 93.8281 267.996C93.9215 268.295 94.0521 268.481 94.2201 268.556C94.4068 268.631 94.6401 268.668 94.9201 268.668C95.2001 268.668 95.5081 268.659 95.8441 268.64C96.1801 268.603 96.4695 268.575 96.7121 268.556C96.9548 268.537 97.0761 268.528 97.0761 268.528V272.056C97.0761 272.056 96.7775 272.103 96.1801 272.196C95.5828 272.308 94.8735 272.364 94.0521 272.364ZM100.251 272V255.536H102.939L103.499 257.272H103.667C103.667 257.272 103.798 257.169 104.059 256.964C104.339 256.74 104.703 256.497 105.151 256.236C105.599 255.956 106.084 255.713 106.607 255.508C107.13 255.284 107.643 255.172 108.147 255.172C108.8 255.172 109.267 255.228 109.547 255.34C109.827 255.433 109.967 255.48 109.967 255.48L109.631 259.232C109.631 259.232 109.463 259.223 109.127 259.204C108.81 259.167 108.464 259.148 108.091 259.148C107.624 259.148 107.167 259.204 106.719 259.316C106.29 259.409 105.898 259.531 105.543 259.68C105.188 259.829 104.871 259.988 104.591 260.156V272H100.251ZM119.086 272.392C117.574 272.392 116.24 272.112 115.082 271.552C113.944 270.992 113.057 270.077 112.422 268.808C111.788 267.539 111.47 265.849 111.47 263.74C111.47 261.537 111.806 259.82 112.478 258.588C113.15 257.337 114.056 256.451 115.194 255.928C116.333 255.405 117.612 255.144 119.03 255.144C120.486 255.144 121.718 255.396 122.726 255.9C123.734 256.404 124.5 257.225 125.022 258.364C125.564 259.503 125.834 261.033 125.834 262.956V265.28H113.906L115.866 264.664C115.866 265.336 115.894 265.924 115.95 266.428C116.006 266.913 116.1 267.324 116.23 267.66C116.361 267.977 116.529 268.229 116.734 268.416C116.921 268.584 117.154 268.715 117.434 268.808C117.733 268.901 118.116 268.948 118.582 268.948C119.086 268.948 119.646 268.901 120.262 268.808C120.878 268.696 121.476 268.565 122.054 268.416C122.652 268.267 123.165 268.136 123.594 268.024C124.024 267.893 124.313 267.8 124.462 267.744L125.526 270.88C125.358 270.955 124.948 271.123 124.294 271.384C123.66 271.627 122.885 271.851 121.97 272.056C121.074 272.28 120.113 272.392 119.086 272.392ZM115.866 262.76L113.934 262.172L123.37 262.004L121.41 262.62C121.41 261.724 121.373 260.987 121.298 260.408C121.224 259.829 121.093 259.419 120.906 259.176C120.776 259.027 120.58 258.887 120.318 258.756C120.057 258.625 119.628 258.56 119.03 258.56C118.321 258.56 117.789 258.635 117.434 258.784C117.08 258.915 116.809 259.083 116.622 259.288C116.118 259.811 115.866 260.968 115.866 262.76ZM134.944 277.012C134.085 277.012 133.254 276.965 132.452 276.872C131.649 276.779 130.93 276.667 130.296 276.536C129.661 276.405 129.157 276.293 128.784 276.2C128.41 276.107 128.224 276.06 128.224 276.06L128.7 272.756C130.044 272.961 131.378 273.148 132.704 273.316C134.048 273.484 135.308 273.568 136.484 273.568C137.118 273.568 137.548 273.531 137.772 273.456C138.014 273.4 138.136 273.288 138.136 273.12C138.136 273.045 138.089 272.971 137.996 272.896C137.921 272.84 137.734 272.747 137.436 272.616C137.137 272.504 136.661 272.327 136.008 272.084C135.354 271.86 134.468 271.543 133.348 271.132C132.564 270.852 131.994 270.637 131.64 270.488C131.285 270.339 131.061 270.227 130.968 270.152C130.874 270.059 130.828 269.975 130.828 269.9C130.828 269.732 130.884 269.48 130.996 269.144C131.108 268.789 131.229 268.425 131.36 268.052C131.509 267.66 131.64 267.333 131.752 267.072C131.864 266.811 131.92 266.68 131.92 266.68C130.632 266.232 129.633 265.56 128.924 264.664C128.233 263.768 127.888 262.611 127.888 261.192C127.888 259.68 128.242 258.485 128.952 257.608C129.661 256.731 130.604 256.105 131.78 255.732C132.956 255.359 134.225 255.172 135.588 255.172C135.98 255.172 136.474 255.181 137.072 255.2C137.669 255.219 138.285 255.247 138.92 255.284C139.573 255.321 140.189 255.359 140.768 255.396C141.346 255.433 141.813 255.461 142.168 255.48C142.522 255.499 142.7 255.508 142.7 255.508V258.028L140.964 258.308C140.964 258.308 141.02 258.457 141.132 258.756C141.262 259.055 141.384 259.447 141.496 259.932C141.608 260.399 141.664 260.903 141.664 261.444C141.664 262.489 141.384 263.441 140.824 264.3C140.264 265.159 139.452 265.84 138.388 266.344C137.324 266.848 136.026 267.109 134.496 267.128C134.496 267.128 134.486 267.212 134.468 267.38C134.449 267.548 134.44 267.651 134.44 267.688C134.44 267.763 134.552 267.847 134.776 267.94C135 268.015 135.326 268.127 135.756 268.276C136.204 268.425 136.736 268.621 137.352 268.864C138.546 269.331 139.489 269.779 140.18 270.208C140.889 270.619 141.393 271.048 141.692 271.496C141.99 271.944 142.14 272.439 142.14 272.98C142.14 273.857 141.832 274.595 141.216 275.192C140.6 275.789 139.75 276.237 138.668 276.536C137.585 276.853 136.344 277.012 134.944 277.012ZM134.804 263.964C135.569 263.964 136.157 263.88 136.568 263.712C136.997 263.544 137.286 263.236 137.436 262.788C137.604 262.321 137.688 261.677 137.688 260.856C137.688 260.259 137.65 259.745 137.576 259.316C137.52 258.887 137.436 258.616 137.324 258.504C137.268 258.448 137.156 258.401 136.988 258.364C136.838 258.327 136.652 258.308 136.428 258.308C136.222 258.289 136.008 258.28 135.784 258.28C135.56 258.261 135.354 258.252 135.168 258.252C134.328 258.252 133.665 258.317 133.18 258.448C132.713 258.56 132.377 258.821 132.172 259.232C131.966 259.624 131.864 260.24 131.864 261.08C131.864 262.219 132.069 262.984 132.48 263.376C132.89 263.768 133.665 263.964 134.804 263.964ZM149.236 272.364C148.34 272.364 147.528 272.159 146.8 271.748C146.09 271.319 145.521 270.703 145.092 269.9C144.662 269.097 144.448 268.127 144.448 266.988C144.448 265.625 144.756 264.561 145.372 263.796C145.988 263.012 146.856 262.452 147.976 262.116C149.096 261.78 150.421 261.612 151.952 261.612H154.052C154.052 260.809 154.014 260.24 153.94 259.904C153.865 259.568 153.781 259.325 153.688 259.176C153.613 259.045 153.464 258.924 153.24 258.812C153.034 258.7 152.605 258.644 151.952 258.644C151.28 258.644 150.58 258.7 149.852 258.812C149.142 258.924 148.48 259.055 147.864 259.204C147.248 259.353 146.744 259.484 146.352 259.596C145.96 259.708 145.764 259.764 145.764 259.764L144.868 256.628C144.868 256.628 145.054 256.553 145.428 256.404C145.82 256.255 146.342 256.087 146.996 255.9C147.668 255.713 148.424 255.545 149.264 255.396C150.122 255.247 151.028 255.172 151.98 255.172C153.585 255.172 154.854 255.424 155.788 255.928C156.721 256.413 157.384 257.123 157.776 258.056C158.186 258.971 158.392 260.072 158.392 261.36V272H155.648L155.088 270.18H154.92C154.92 270.18 154.752 270.292 154.416 270.516C154.098 270.74 153.669 270.992 153.128 271.272C152.586 271.552 151.98 271.804 151.308 272.028C150.636 272.252 149.945 272.364 149.236 272.364ZM150.496 268.808C151.018 268.808 151.55 268.724 152.092 268.556C152.652 268.369 153.118 268.192 153.492 268.024C153.865 267.837 154.052 267.744 154.052 267.744V264.832C154.052 264.832 153.828 264.813 153.38 264.776C152.932 264.72 152.353 264.692 151.644 264.692C150.412 264.692 149.646 264.832 149.348 265.112C149.217 265.224 149.105 265.42 149.012 265.7C148.918 265.961 148.872 266.335 148.872 266.82C148.872 267.511 148.993 268.015 149.236 268.332C149.497 268.649 149.917 268.808 150.496 268.808ZM162.65 272V255.536H165.338L165.898 257.272H166.066C166.066 257.272 166.196 257.169 166.458 256.964C166.738 256.74 167.102 256.497 167.55 256.236C167.998 255.956 168.483 255.713 169.006 255.508C169.528 255.284 170.042 255.172 170.546 255.172C171.199 255.172 171.666 255.228 171.946 255.34C172.226 255.433 172.366 255.48 172.366 255.48L172.03 259.232C172.03 259.232 171.862 259.223 171.526 259.204C171.208 259.167 170.863 259.148 170.49 259.148C170.023 259.148 169.566 259.204 169.118 259.316C168.688 259.409 168.296 259.531 167.942 259.68C167.587 259.829 167.27 259.988 166.99 260.156V272H162.65ZM188.201 272.364C186.391 272.364 184.953 272.019 183.889 271.328C182.825 270.619 182.069 269.62 181.621 268.332C181.173 267.044 180.949 265.513 180.949 263.74C180.949 261.985 181.173 260.473 181.621 259.204C182.069 257.916 182.825 256.927 183.889 256.236C184.953 255.527 186.391 255.172 188.201 255.172C190.031 255.172 191.468 255.527 192.513 256.236C193.559 256.927 194.296 257.916 194.725 259.204C195.173 260.473 195.397 261.995 195.397 263.768C195.397 265.523 195.173 267.044 194.725 268.332C194.296 269.62 193.559 270.619 192.513 271.328C191.468 272.019 190.031 272.364 188.201 272.364ZM188.201 269.06C188.743 269.06 189.191 268.985 189.545 268.836C189.9 268.687 190.18 268.416 190.385 268.024C190.609 267.632 190.759 267.091 190.833 266.4C190.927 265.709 190.973 264.832 190.973 263.768C190.973 262.685 190.927 261.799 190.833 261.108C190.74 260.417 190.591 259.885 190.385 259.512C190.18 259.12 189.9 258.849 189.545 258.7C189.191 258.551 188.743 258.476 188.201 258.476C187.66 258.476 187.203 258.551 186.829 258.7C186.475 258.849 186.185 259.12 185.961 259.512C185.756 259.885 185.607 260.417 185.513 261.108C185.42 261.799 185.373 262.685 185.373 263.768C185.373 264.832 185.42 265.709 185.513 266.4C185.607 267.091 185.756 267.632 185.961 268.024C186.185 268.416 186.475 268.687 186.829 268.836C187.203 268.985 187.66 269.06 188.201 269.06ZM206.099 272V255.536H208.871L209.375 257.188H209.543C209.879 256.983 210.252 256.768 210.663 256.544C211.092 256.301 211.54 256.077 212.007 255.872C212.492 255.648 213.005 255.471 213.547 255.34C214.088 255.191 214.648 255.116 215.227 255.116C216.16 255.116 216.916 255.312 217.495 255.704C218.073 256.077 218.521 256.591 218.839 257.244C219.585 256.759 220.416 256.283 221.331 255.816C222.264 255.349 223.291 255.116 224.411 255.116C225.568 255.116 226.464 255.387 227.099 255.928C227.733 256.451 228.172 257.169 228.415 258.084C228.676 258.999 228.807 260.044 228.807 261.22V272H224.411V261.976C224.411 261.211 224.392 260.641 224.355 260.268C224.317 259.876 224.205 259.568 224.019 259.344C223.907 259.195 223.748 259.083 223.543 259.008C223.337 258.933 223.104 258.896 222.843 258.896C222.6 258.896 222.329 258.933 222.031 259.008C221.732 259.064 221.433 259.157 221.135 259.288C220.836 259.4 220.547 259.531 220.267 259.68C220.005 259.811 219.763 259.951 219.539 260.1C219.557 260.324 219.567 260.557 219.567 260.8C219.585 261.024 219.595 261.257 219.595 261.5V272H215.255V261.976C215.255 261.211 215.236 260.632 215.199 260.24C215.161 259.848 215.049 259.54 214.863 259.316C214.732 259.148 214.564 259.036 214.359 258.98C214.153 258.924 213.948 258.896 213.743 258.896C213.407 258.896 213.033 258.952 212.623 259.064C212.231 259.176 211.839 259.325 211.447 259.512C211.073 259.68 210.737 259.867 210.439 260.072V272H206.099ZM239.672 272.392C238.16 272.392 236.826 272.112 235.668 271.552C234.53 270.992 233.643 270.077 233.008 268.808C232.374 267.539 232.056 265.849 232.056 263.74C232.056 261.537 232.392 259.82 233.064 258.588C233.736 257.337 234.642 256.451 235.78 255.928C236.919 255.405 238.198 255.144 239.616 255.144C241.072 255.144 242.304 255.396 243.312 255.9C244.32 256.404 245.086 257.225 245.608 258.364C246.15 259.503 246.42 261.033 246.42 262.956V265.28H234.492L236.452 264.664C236.452 265.336 236.48 265.924 236.536 266.428C236.592 266.913 236.686 267.324 236.816 267.66C236.947 267.977 237.115 268.229 237.32 268.416C237.507 268.584 237.74 268.715 238.02 268.808C238.319 268.901 238.702 268.948 239.168 268.948C239.672 268.948 240.232 268.901 240.848 268.808C241.464 268.696 242.062 268.565 242.64 268.416C243.238 268.267 243.751 268.136 244.18 268.024C244.61 267.893 244.899 267.8 245.048 267.744L246.112 270.88C245.944 270.955 245.534 271.123 244.88 271.384C244.246 271.627 243.471 271.851 242.556 272.056C241.66 272.28 240.699 272.392 239.672 272.392ZM236.452 262.76L234.52 262.172L243.956 262.004L241.996 262.62C241.996 261.724 241.959 260.987 241.884 260.408C241.81 259.829 241.679 259.419 241.492 259.176C241.362 259.027 241.166 258.887 240.904 258.756C240.643 258.625 240.214 258.56 239.616 258.56C238.907 258.56 238.375 258.635 238.02 258.784C237.666 258.915 237.395 259.083 237.208 259.288C236.704 259.811 236.452 260.968 236.452 262.76ZM249.845 272V250.692H254.185V272H249.845ZM258.322 272V250.692H262.662V258.532L262.018 256.908C262.279 256.777 262.709 256.572 263.306 256.292C263.903 255.993 264.585 255.723 265.35 255.48C266.134 255.237 266.927 255.116 267.73 255.116C268.869 255.116 269.737 255.387 270.334 255.928C270.95 256.469 271.37 257.197 271.594 258.112C271.837 259.027 271.958 260.063 271.958 261.22V272H267.618V261.976C267.618 261.248 267.581 260.669 267.506 260.24C267.431 259.811 267.319 259.503 267.17 259.316C267.077 259.185 266.927 259.083 266.722 259.008C266.517 258.933 266.302 258.896 266.078 258.896C265.798 258.896 265.443 258.961 265.014 259.092C264.585 259.204 264.146 259.344 263.698 259.512C263.269 259.661 262.895 259.811 262.578 259.96C262.261 260.091 262.074 260.175 262.018 260.212L262.662 259.316V272H258.322ZM282.401 272.364C280.59 272.364 279.153 272.019 278.089 271.328C277.025 270.619 276.269 269.62 275.821 268.332C275.373 267.044 275.149 265.513 275.149 263.74C275.149 261.985 275.373 260.473 275.821 259.204C276.269 257.916 277.025 256.927 278.089 256.236C279.153 255.527 280.59 255.172 282.401 255.172C284.23 255.172 285.667 255.527 286.713 256.236C287.758 256.927 288.495 257.916 288.925 259.204C289.373 260.473 289.597 261.995 289.597 263.768C289.597 265.523 289.373 267.044 288.925 268.332C288.495 269.62 287.758 270.619 286.713 271.328C285.667 272.019 284.23 272.364 282.401 272.364ZM282.401 269.06C282.942 269.06 283.39 268.985 283.745 268.836C284.099 268.687 284.379 268.416 284.585 268.024C284.809 267.632 284.958 267.091 285.033 266.4C285.126 265.709 285.173 264.832 285.173 263.768C285.173 262.685 285.126 261.799 285.033 261.108C284.939 260.417 284.79 259.885 284.585 259.512C284.379 259.12 284.099 258.849 283.745 258.7C283.39 258.551 282.942 258.476 282.401 258.476C281.859 258.476 281.402 258.551 281.029 258.7C280.674 258.849 280.385 259.12 280.161 259.512C279.955 259.885 279.806 260.417 279.713 261.108C279.619 261.799 279.573 262.685 279.573 263.768C279.573 264.832 279.619 265.709 279.713 266.4C279.806 267.091 279.955 267.632 280.161 268.024C280.385 268.416 280.674 268.687 281.029 268.836C281.402 268.985 281.859 269.06 282.401 269.06ZM293.161 272V255.536H295.849L296.409 257.272H296.577C296.577 257.272 296.708 257.169 296.969 256.964C297.249 256.74 297.613 256.497 298.061 256.236C298.509 255.956 298.995 255.713 299.517 255.508C300.04 255.284 300.553 255.172 301.057 255.172C301.711 255.172 302.177 255.228 302.457 255.34C302.737 255.433 302.877 255.48 302.877 255.48L302.541 259.232C302.541 259.232 302.373 259.223 302.037 259.204C301.72 259.167 301.375 259.148 301.001 259.148C300.535 259.148 300.077 259.204 299.629 259.316C299.2 259.409 298.808 259.531 298.453 259.68C298.099 259.829 297.781 259.988 297.501 260.156V272H293.161ZM61.8296 306.364C60.9709 306.364 60.1403 306.28 59.3376 306.112C58.5349 305.944 57.8163 305.757 57.1816 305.552C56.5469 305.347 56.0429 305.16 55.6696 304.992C55.2963 304.824 55.1096 304.74 55.1096 304.74L56.1736 301.324C56.1736 301.324 56.3603 301.399 56.7336 301.548C57.1256 301.697 57.6296 301.875 58.2456 302.08C58.8616 302.285 59.5056 302.463 60.1776 302.612C60.8683 302.761 61.5029 302.836 62.0816 302.836C62.3989 302.836 62.6509 302.808 62.8376 302.752C63.0429 302.696 63.2016 302.631 63.3136 302.556C63.4629 302.444 63.5749 302.285 63.6496 302.08C63.7429 301.875 63.7896 301.651 63.7896 301.408C63.7896 300.941 63.6403 300.587 63.3416 300.344C63.0429 300.083 62.6416 299.868 62.1376 299.7C61.6523 299.532 61.1016 299.364 60.4856 299.196C59.8883 299.009 59.2816 298.813 58.6656 298.608C58.0496 298.384 57.4803 298.095 56.9576 297.74C56.4536 297.367 56.0429 296.891 55.7256 296.312C55.4083 295.733 55.2496 294.987 55.2496 294.072C55.2496 292.597 55.7443 291.412 56.7336 290.516C57.7229 289.62 59.3096 289.172 61.4936 289.172C62.3149 289.172 63.1083 289.228 63.8736 289.34C64.6389 289.452 65.3203 289.583 65.9176 289.732C66.5149 289.881 66.9816 290.012 67.3176 290.124L66.6736 293.484C66.6736 293.484 66.4963 293.447 66.1416 293.372C65.7869 293.279 65.3296 293.176 64.7696 293.064C64.2096 292.952 63.6123 292.859 62.9776 292.784C62.3429 292.691 61.7456 292.644 61.1856 292.644C60.7189 292.644 60.3923 292.672 60.2056 292.728C60.0189 292.784 59.8789 292.849 59.7856 292.924C59.7109 292.98 59.6363 293.073 59.5616 293.204C59.5056 293.316 59.4776 293.475 59.4776 293.68C59.4776 294.091 59.6269 294.427 59.9256 294.688C60.2243 294.931 60.6163 295.136 61.1016 295.304C61.6056 295.472 62.1469 295.64 62.7256 295.808C63.3229 295.976 63.9296 296.163 64.5456 296.368C65.1803 296.555 65.7589 296.825 66.2816 297.18C66.8043 297.516 67.2243 297.983 67.5416 298.58C67.8589 299.159 68.0176 299.924 68.0176 300.876C68.0176 302.519 67.4856 303.844 66.4216 304.852C65.3576 305.86 63.8269 306.364 61.8296 306.364ZM77.9887 306.392C76.4767 306.392 75.142 306.112 73.9847 305.552C72.846 304.992 71.9593 304.077 71.3247 302.808C70.69 301.539 70.3727 299.849 70.3727 297.74C70.3727 295.537 70.7087 293.82 71.3807 292.588C72.0527 291.337 72.958 290.451 74.0967 289.928C75.2353 289.405 76.514 289.144 77.9327 289.144C79.3887 289.144 80.6207 289.396 81.6287 289.9C82.6367 290.404 83.402 291.225 83.9247 292.364C84.466 293.503 84.7367 295.033 84.7367 296.956V299.28H72.8087L74.7687 298.664C74.7687 299.336 74.7967 299.924 74.8527 300.428C74.9087 300.913 75.002 301.324 75.1327 301.66C75.2633 301.977 75.4313 302.229 75.6367 302.416C75.8233 302.584 76.0567 302.715 76.3367 302.808C76.6353 302.901 77.018 302.948 77.4847 302.948C77.9887 302.948 78.5487 302.901 79.1647 302.808C79.7807 302.696 80.378 302.565 80.9567 302.416C81.554 302.267 82.0673 302.136 82.4967 302.024C82.926 301.893 83.2153 301.8 83.3647 301.744L84.4287 304.88C84.2607 304.955 83.85 305.123 83.1967 305.384C82.562 305.627 81.7873 305.851 80.8727 306.056C79.9767 306.28 79.0153 306.392 77.9887 306.392ZM74.7687 296.76L72.8367 296.172L82.2727 296.004L80.3127 296.62C80.3127 295.724 80.2753 294.987 80.2007 294.408C80.126 293.829 79.9953 293.419 79.8087 293.176C79.678 293.027 79.482 292.887 79.2207 292.756C78.9593 292.625 78.53 292.56 77.9327 292.56C77.2233 292.56 76.6913 292.635 76.3367 292.784C75.982 292.915 75.7113 293.083 75.5247 293.288C75.0207 293.811 74.7687 294.968 74.7687 296.76ZM88.3018 306V289.536H90.9898L91.5498 291.272H91.7178C91.7178 291.272 91.8485 291.169 92.1098 290.964C92.3898 290.74 92.7538 290.497 93.2018 290.236C93.6498 289.956 94.1352 289.713 94.6578 289.508C95.1805 289.284 95.6938 289.172 96.1978 289.172C96.8512 289.172 97.3178 289.228 97.5978 289.34C97.8778 289.433 98.0178 289.48 98.0178 289.48L97.6818 293.232C97.6818 293.232 97.5138 293.223 97.1778 293.204C96.8605 293.167 96.5152 293.148 96.1418 293.148C95.6752 293.148 95.2178 293.204 94.7698 293.316C94.3405 293.409 93.9485 293.531 93.5938 293.68C93.2392 293.829 92.9218 293.988 92.6418 294.156V306H88.3018ZM102.478 306L97.6895 289.536H102.17L104.97 302.304H105.138L107.938 289.536H112.418L107.63 306H102.478ZM114.852 306V289.536H119.192V306H114.852ZM114.74 287.296V284.272H119.304V287.296H114.74ZM129.343 311.012C128.709 311.012 128.139 310.965 127.635 310.872C127.15 310.797 126.907 310.76 126.907 310.76V308.324C126.907 308.324 127.019 308.333 127.243 308.352C127.486 308.371 127.766 308.389 128.083 308.408C128.419 308.445 128.727 308.464 129.007 308.464C129.437 308.464 129.754 308.417 129.959 308.324C130.183 308.231 130.295 307.997 130.295 307.624C130.295 307.195 130.249 306.737 130.155 306.252C130.062 305.785 130.006 305.515 129.987 305.44L132.115 304.88C132.134 304.899 132.19 305.057 132.283 305.356C132.377 305.636 132.47 306 132.563 306.448C132.675 306.896 132.731 307.381 132.731 307.904C132.731 308.856 132.433 309.612 131.835 310.172C131.257 310.732 130.426 311.012 129.343 311.012ZM130.155 306.364C128.699 306.364 127.411 306.075 126.291 305.496C125.171 304.899 124.294 303.965 123.659 302.696C123.025 301.427 122.707 299.765 122.707 297.712C122.707 296.013 122.922 294.613 123.351 293.512C123.781 292.392 124.369 291.524 125.115 290.908C125.881 290.273 126.758 289.825 127.747 289.564C128.737 289.303 129.782 289.172 130.883 289.172C131.929 289.172 132.871 289.247 133.711 289.396C134.57 289.545 135.205 289.676 135.615 289.788L135.139 293.064C134.598 292.971 133.889 292.877 133.011 292.784C132.153 292.672 131.341 292.616 130.575 292.616C129.791 292.616 129.231 292.681 128.895 292.812C128.578 292.924 128.335 293.064 128.167 293.232C127.831 293.587 127.57 294.137 127.383 294.884C127.215 295.631 127.131 296.573 127.131 297.712C127.131 298.795 127.197 299.663 127.327 300.316C127.477 300.951 127.654 301.436 127.859 301.772C128.083 302.108 128.289 302.351 128.475 302.5C128.587 302.575 128.755 302.668 128.979 302.78C129.222 302.873 129.549 302.92 129.959 302.92C130.407 302.92 130.902 302.855 131.443 302.724C132.003 302.575 132.545 302.416 133.067 302.248C133.59 302.061 134.019 301.903 134.355 301.772C134.691 301.641 134.859 301.576 134.859 301.576L136.035 304.656C136.035 304.656 135.793 304.805 135.307 305.104C134.841 305.384 134.169 305.664 133.291 305.944C132.414 306.224 131.369 306.364 130.155 306.364ZM145.162 306.364C143.352 306.364 141.914 306.019 140.85 305.328C139.786 304.619 139.03 303.62 138.582 302.332C138.134 301.044 137.91 299.513 137.91 297.74C137.91 295.985 138.134 294.473 138.582 293.204C139.03 291.916 139.786 290.927 140.85 290.236C141.914 289.527 143.352 289.172 145.162 289.172C146.992 289.172 148.429 289.527 149.474 290.236C150.52 290.927 151.257 291.916 151.686 293.204C152.134 294.473 152.358 295.995 152.358 297.768C152.358 299.523 152.134 301.044 151.686 302.332C151.257 303.62 150.52 304.619 149.474 305.328C148.429 306.019 146.992 306.364 145.162 306.364ZM145.162 303.06C145.704 303.06 146.152 302.985 146.506 302.836C146.861 302.687 147.141 302.416 147.346 302.024C147.57 301.632 147.72 301.091 147.794 300.4C147.888 299.709 147.934 298.832 147.934 297.768C147.934 296.685 147.888 295.799 147.794 295.108C147.701 294.417 147.552 293.885 147.346 293.512C147.141 293.12 146.861 292.849 146.506 292.7C146.152 292.551 145.704 292.476 145.162 292.476C144.621 292.476 144.164 292.551 143.79 292.7C143.436 292.849 143.146 293.12 142.922 293.512C142.717 293.885 142.568 294.417 142.474 295.108C142.381 295.799 142.334 296.685 142.334 297.768C142.334 298.832 142.381 299.709 142.474 300.4C142.568 301.091 142.717 301.632 142.922 302.024C143.146 302.416 143.436 302.687 143.79 302.836C144.164 302.985 144.621 303.06 145.162 303.06ZM157.463 310.9L154.943 309.668C155.242 309.239 155.466 308.725 155.615 308.128C155.764 307.549 155.839 306.849 155.839 306.028V302.304H160.039V304.852C160.039 306.513 159.768 307.811 159.227 308.744C158.704 309.696 158.116 310.415 157.463 310.9ZM171.427 306V289.536H174.199L174.703 291.188H174.871C175.244 290.964 175.646 290.74 176.075 290.516C176.523 290.273 176.999 290.049 177.503 289.844C178.007 289.639 178.539 289.48 179.099 289.368C179.659 289.237 180.247 289.172 180.863 289.172C182.02 289.172 182.898 289.433 183.495 289.956C184.092 290.479 184.503 291.197 184.727 292.112C184.951 293.027 185.063 294.063 185.063 295.22V306H180.723V296.032C180.723 295.267 180.704 294.688 180.667 294.296C180.63 293.904 180.518 293.596 180.331 293.372C180.219 293.223 180.07 293.12 179.883 293.064C179.696 292.989 179.472 292.952 179.211 292.952C178.856 292.952 178.464 293.008 178.035 293.12C177.624 293.232 177.214 293.381 176.803 293.568C176.411 293.736 176.066 293.923 175.767 294.128V306H171.427ZM195.502 306.364C193.692 306.364 192.254 306.019 191.19 305.328C190.126 304.619 189.37 303.62 188.922 302.332C188.474 301.044 188.25 299.513 188.25 297.74C188.25 295.985 188.474 294.473 188.922 293.204C189.37 291.916 190.126 290.927 191.19 290.236C192.254 289.527 193.692 289.172 195.502 289.172C197.332 289.172 198.769 289.527 199.814 290.236C200.86 290.927 201.597 291.916 202.026 293.204C202.474 294.473 202.698 295.995 202.698 297.768C202.698 299.523 202.474 301.044 202.026 302.332C201.597 303.62 200.86 304.619 199.814 305.328C198.769 306.019 197.332 306.364 195.502 306.364ZM195.502 303.06C196.044 303.06 196.492 302.985 196.846 302.836C197.201 302.687 197.481 302.416 197.686 302.024C197.91 301.632 198.06 301.091 198.134 300.4C198.228 299.709 198.274 298.832 198.274 297.768C198.274 296.685 198.228 295.799 198.134 295.108C198.041 294.417 197.892 293.885 197.686 293.512C197.481 293.12 197.201 292.849 196.846 292.7C196.492 292.551 196.044 292.476 195.502 292.476C194.961 292.476 194.504 292.551 194.13 292.7C193.776 292.849 193.486 293.12 193.262 293.512C193.057 293.885 192.908 294.417 192.814 295.108C192.721 295.799 192.674 296.685 192.674 297.768C192.674 298.832 192.721 299.709 192.814 300.4C192.908 301.091 193.057 301.632 193.262 302.024C193.486 302.416 193.776 302.687 194.13 302.836C194.504 302.985 194.961 303.06 195.502 303.06ZM218.412 306.364C217.422 306.364 216.573 306.215 215.864 305.916C215.173 305.617 214.641 305.048 214.268 304.208C213.913 303.349 213.736 302.108 213.736 300.484V293.596H211.832V290.88L213.932 290.488L214.576 286.596H218.132V290.348H221.492V293.68H218.076V300.596C218.076 301.231 218.113 301.697 218.188 301.996C218.281 302.295 218.412 302.481 218.579 302.556C218.766 302.631 219 302.668 219.28 302.668C219.56 302.668 219.868 302.659 220.204 302.64C220.54 302.603 220.829 302.575 221.072 302.556C221.314 302.537 221.436 302.528 221.436 302.528V306.056C221.436 306.056 221.137 306.103 220.54 306.196C219.942 306.308 219.233 306.364 218.412 306.364ZM231.414 306.392C229.902 306.392 228.568 306.112 227.41 305.552C226.272 304.992 225.385 304.077 224.75 302.808C224.116 301.539 223.798 299.849 223.798 297.74C223.798 295.537 224.134 293.82 224.806 292.588C225.478 291.337 226.384 290.451 227.522 289.928C228.661 289.405 229.94 289.144 231.358 289.144C232.814 289.144 234.046 289.396 235.054 289.9C236.062 290.404 236.828 291.225 237.35 292.364C237.892 293.503 238.162 295.033 238.162 296.956V299.28H226.234L228.194 298.664C228.194 299.336 228.222 299.924 228.278 300.428C228.334 300.913 228.428 301.324 228.558 301.66C228.689 301.977 228.857 302.229 229.062 302.416C229.249 302.584 229.482 302.715 229.762 302.808C230.061 302.901 230.444 302.948 230.91 302.948C231.414 302.948 231.974 302.901 232.59 302.808C233.206 302.696 233.804 302.565 234.382 302.416C234.98 302.267 235.493 302.136 235.922 302.024C236.352 301.893 236.641 301.8 236.79 301.744L237.854 304.88C237.686 304.955 237.276 305.123 236.622 305.384C235.988 305.627 235.213 305.851 234.298 306.056C233.402 306.28 232.441 306.392 231.414 306.392ZM228.194 296.76L226.262 296.172L235.698 296.004L233.738 296.62C233.738 295.724 233.701 294.987 233.626 294.408C233.552 293.829 233.421 293.419 233.234 293.176C233.104 293.027 232.908 292.887 232.646 292.756C232.385 292.625 231.956 292.56 231.358 292.56C230.649 292.56 230.117 292.635 229.762 292.784C229.408 292.915 229.137 293.083 228.95 293.288C228.446 293.811 228.194 294.968 228.194 296.76ZM241.728 306V289.536H244.5L245.004 291.188H245.172C245.508 290.983 245.881 290.768 246.292 290.544C246.721 290.301 247.169 290.077 247.636 289.872C248.121 289.648 248.634 289.471 249.176 289.34C249.717 289.191 250.277 289.116 250.856 289.116C251.789 289.116 252.545 289.312 253.124 289.704C253.702 290.077 254.15 290.591 254.468 291.244C255.214 290.759 256.045 290.283 256.96 289.816C257.893 289.349 258.92 289.116 260.04 289.116C261.197 289.116 262.093 289.387 262.728 289.928C263.362 290.451 263.801 291.169 264.044 292.084C264.305 292.999 264.436 294.044 264.436 295.22V306H260.04V295.976C260.04 295.211 260.021 294.641 259.984 294.268C259.946 293.876 259.834 293.568 259.648 293.344C259.536 293.195 259.377 293.083 259.172 293.008C258.966 292.933 258.733 292.896 258.472 292.896C258.229 292.896 257.958 292.933 257.66 293.008C257.361 293.064 257.062 293.157 256.764 293.288C256.465 293.4 256.176 293.531 255.896 293.68C255.634 293.811 255.392 293.951 255.168 294.1C255.186 294.324 255.196 294.557 255.196 294.8C255.214 295.024 255.224 295.257 255.224 295.5V306H250.884V295.976C250.884 295.211 250.865 294.632 250.828 294.24C250.79 293.848 250.678 293.54 250.492 293.316C250.361 293.148 250.193 293.036 249.988 292.98C249.782 292.924 249.577 292.896 249.372 292.896C249.036 292.896 248.662 292.952 248.252 293.064C247.86 293.176 247.468 293.325 247.076 293.512C246.702 293.68 246.366 293.867 246.068 294.072V306H241.728ZM268.357 310.648V289.536H271.129L271.633 291.216H271.773C272.184 290.917 272.65 290.619 273.173 290.32C273.714 290.003 274.302 289.732 274.937 289.508C275.572 289.284 276.253 289.172 276.981 289.172C278.045 289.172 278.997 289.461 279.837 290.04C280.696 290.6 281.368 291.496 281.853 292.728C282.338 293.941 282.581 295.528 282.581 297.488C282.581 299.299 282.376 300.783 281.965 301.94C281.554 303.097 281.004 304.003 280.313 304.656C279.641 305.291 278.894 305.739 278.073 306C277.27 306.243 276.468 306.364 275.665 306.364C275.254 306.364 274.816 306.336 274.349 306.28C273.882 306.243 273.49 306.205 273.173 306.168C272.856 306.131 272.697 306.112 272.697 306.112V310.648H268.357ZM275.497 302.836C275.926 302.836 276.262 302.808 276.505 302.752C276.748 302.696 276.962 302.603 277.149 302.472C277.336 302.341 277.504 302.117 277.653 301.8C277.802 301.464 277.924 300.951 278.017 300.26C278.11 299.569 278.157 298.608 278.157 297.376C278.157 296.555 278.138 295.873 278.101 295.332C278.064 294.791 278.008 294.352 277.933 294.016C277.858 293.68 277.756 293.428 277.625 293.26C277.513 293.092 277.354 292.961 277.149 292.868C276.962 292.775 276.682 292.728 276.309 292.728C275.805 292.728 275.273 292.821 274.713 293.008C274.153 293.176 273.677 293.363 273.285 293.568C272.893 293.773 272.697 293.904 272.697 293.96V302.444C272.697 302.444 272.977 302.509 273.537 302.64C274.116 302.771 274.769 302.836 275.497 302.836ZM292.518 306.364C290.707 306.364 289.27 306.019 288.206 305.328C287.142 304.619 286.386 303.62 285.938 302.332C285.49 301.044 285.266 299.513 285.266 297.74C285.266 295.985 285.49 294.473 285.938 293.204C286.386 291.916 287.142 290.927 288.206 290.236C289.27 289.527 290.707 289.172 292.518 289.172C294.347 289.172 295.785 289.527 296.83 290.236C297.875 290.927 298.613 291.916 299.042 293.204C299.49 294.473 299.714 295.995 299.714 297.768C299.714 299.523 299.49 301.044 299.042 302.332C298.613 303.62 297.875 304.619 296.83 305.328C295.785 306.019 294.347 306.364 292.518 306.364ZM292.518 303.06C293.059 303.06 293.507 302.985 293.862 302.836C294.217 302.687 294.497 302.416 294.702 302.024C294.926 301.632 295.075 301.091 295.15 300.4C295.243 299.709 295.29 298.832 295.29 297.768C295.29 296.685 295.243 295.799 295.15 295.108C295.057 294.417 294.907 293.885 294.702 293.512C294.497 293.12 294.217 292.849 293.862 292.7C293.507 292.551 293.059 292.476 292.518 292.476C291.977 292.476 291.519 292.551 291.146 292.7C290.791 292.849 290.502 293.12 290.278 293.512C290.073 293.885 289.923 294.417 289.83 295.108C289.737 295.799 289.69 296.685 289.69 297.768C289.69 298.832 289.737 299.709 289.83 300.4C289.923 301.091 290.073 301.632 290.278 302.024C290.502 302.416 290.791 302.687 291.146 302.836C291.519 302.985 291.977 303.06 292.518 303.06ZM113.976 340.364C113.08 340.364 112.268 340.159 111.54 339.748C110.83 339.319 110.261 338.703 109.832 337.9C109.402 337.097 109.188 336.127 109.188 334.988C109.188 333.625 109.496 332.561 110.112 331.796C110.728 331.012 111.596 330.452 112.716 330.116C113.836 329.78 115.161 329.612 116.692 329.612H118.792C118.792 328.809 118.754 328.24 118.68 327.904C118.605 327.568 118.521 327.325 118.428 327.176C118.353 327.045 118.204 326.924 117.98 326.812C117.774 326.7 117.345 326.644 116.692 326.644C116.02 326.644 115.32 326.7 114.592 326.812C113.882 326.924 113.22 327.055 112.604 327.204C111.988 327.353 111.484 327.484 111.092 327.596C110.7 327.708 110.504 327.764 110.504 327.764L109.608 324.628C109.608 324.628 109.794 324.553 110.168 324.404C110.56 324.255 111.082 324.087 111.736 323.9C112.408 323.713 113.164 323.545 114.004 323.396C114.862 323.247 115.768 323.172 116.72 323.172C118.325 323.172 119.594 323.424 120.528 323.928C121.461 324.413 122.124 325.123 122.516 326.056C122.926 326.971 123.132 328.072 123.132 329.36V340H120.388L119.828 338.18H119.66C119.66 338.18 119.492 338.292 119.156 338.516C118.838 338.74 118.409 338.992 117.868 339.272C117.326 339.552 116.72 339.804 116.048 340.028C115.376 340.252 114.685 340.364 113.976 340.364ZM115.236 336.808C115.758 336.808 116.29 336.724 116.832 336.556C117.392 336.369 117.858 336.192 118.232 336.024C118.605 335.837 118.792 335.744 118.792 335.744V332.832C118.792 332.832 118.568 332.813 118.12 332.776C117.672 332.72 117.093 332.692 116.384 332.692C115.152 332.692 114.386 332.832 114.088 333.112C113.957 333.224 113.845 333.42 113.752 333.7C113.658 333.961 113.612 334.335 113.612 334.82C113.612 335.511 113.733 336.015 113.976 336.332C114.237 336.649 114.657 336.808 115.236 336.808ZM133.97 340.364C132.514 340.364 131.226 340.075 130.106 339.496C128.986 338.899 128.108 337.965 127.474 336.696C126.839 335.427 126.522 333.765 126.522 331.712C126.522 330.013 126.736 328.613 127.166 327.512C127.595 326.392 128.183 325.524 128.93 324.908C129.695 324.273 130.572 323.825 131.562 323.564C132.551 323.303 133.596 323.172 134.698 323.172C135.743 323.172 136.686 323.247 137.526 323.396C138.384 323.545 139.019 323.676 139.43 323.788L138.954 327.064C138.412 326.971 137.703 326.877 136.826 326.784C135.967 326.672 135.155 326.616 134.39 326.616C133.606 326.616 133.046 326.681 132.71 326.812C132.392 326.924 132.15 327.064 131.982 327.232C131.646 327.587 131.384 328.137 131.198 328.884C131.03 329.631 130.946 330.573 130.946 331.712C130.946 332.795 131.011 333.663 131.142 334.316C131.291 334.951 131.468 335.436 131.674 335.772C131.898 336.108 132.103 336.351 132.29 336.5C132.402 336.575 132.57 336.668 132.794 336.78C133.036 336.873 133.363 336.92 133.774 336.92C134.222 336.92 134.716 336.855 135.258 336.724C135.818 336.575 136.359 336.416 136.882 336.248C137.404 336.061 137.834 335.903 138.17 335.772C138.506 335.641 138.674 335.576 138.674 335.576L139.85 338.656C139.85 338.656 139.607 338.805 139.122 339.104C138.655 339.384 137.983 339.664 137.106 339.944C136.228 340.224 135.183 340.364 133.97 340.364ZM149.004 340.364C147.194 340.364 145.756 340.019 144.692 339.328C143.628 338.619 142.872 337.62 142.424 336.332C141.976 335.044 141.752 333.513 141.752 331.74C141.752 329.985 141.976 328.473 142.424 327.204C142.872 325.916 143.628 324.927 144.692 324.236C145.756 323.527 147.194 323.172 149.004 323.172C150.834 323.172 152.271 323.527 153.316 324.236C154.362 324.927 155.099 325.916 155.528 327.204C155.976 328.473 156.2 329.995 156.2 331.768C156.2 333.523 155.976 335.044 155.528 336.332C155.099 337.62 154.362 338.619 153.316 339.328C152.271 340.019 150.834 340.364 149.004 340.364ZM149.004 337.06C149.546 337.06 149.994 336.985 150.348 336.836C150.703 336.687 150.983 336.416 151.188 336.024C151.412 335.632 151.562 335.091 151.636 334.4C151.73 333.709 151.776 332.832 151.776 331.768C151.776 330.685 151.73 329.799 151.636 329.108C151.543 328.417 151.394 327.885 151.188 327.512C150.983 327.12 150.703 326.849 150.348 326.7C149.994 326.551 149.546 326.476 149.004 326.476C148.463 326.476 148.006 326.551 147.632 326.7C147.278 326.849 146.988 327.12 146.764 327.512C146.559 327.885 146.41 328.417 146.316 329.108C146.223 329.799 146.176 330.685 146.176 331.768C146.176 332.832 146.223 333.709 146.316 334.4C146.41 335.091 146.559 335.632 146.764 336.024C146.988 336.416 147.278 336.687 147.632 336.836C148.006 336.985 148.463 337.06 149.004 337.06ZM159.765 340V323.536H162.453L163.013 325.272H163.181C163.181 325.272 163.311 325.169 163.573 324.964C163.853 324.74 164.217 324.497 164.665 324.236C165.113 323.956 165.598 323.713 166.121 323.508C166.643 323.284 167.157 323.172 167.661 323.172C168.314 323.172 168.781 323.228 169.061 323.34C169.341 323.433 169.481 323.48 169.481 323.48L169.145 327.232C169.145 327.232 168.977 327.223 168.641 327.204C168.323 327.167 167.978 327.148 167.605 327.148C167.138 327.148 166.681 327.204 166.233 327.316C165.803 327.409 165.411 327.531 165.057 327.68C164.702 327.829 164.385 327.988 164.105 328.156V340H159.765ZM176.612 340.364C175.567 340.364 174.615 340.065 173.756 339.468C172.897 338.871 172.207 337.947 171.684 336.696C171.18 335.445 170.928 333.84 170.928 331.88C170.928 330.107 171.124 328.651 171.516 327.512C171.927 326.373 172.459 325.487 173.112 324.852C173.784 324.217 174.503 323.779 175.268 323.536C176.052 323.293 176.817 323.172 177.564 323.172C178.087 323.172 178.591 323.209 179.076 323.284C179.561 323.34 179.963 323.405 180.28 323.48C180.597 323.555 180.756 323.592 180.756 323.592V318.692H185.096V340H182.296L181.848 338.404H181.68C181.307 338.647 180.859 338.927 180.336 339.244C179.813 339.543 179.235 339.804 178.6 340.028C177.984 340.252 177.321 340.364 176.612 340.364ZM177.368 336.836C177.685 336.836 178.04 336.789 178.432 336.696C178.824 336.584 179.197 336.453 179.552 336.304C179.907 336.155 180.196 336.033 180.42 335.94C180.644 335.828 180.756 335.772 180.756 335.772V327.316C180.756 327.316 180.597 327.269 180.28 327.176C179.981 327.064 179.599 326.961 179.132 326.868C178.665 326.775 178.18 326.728 177.676 326.728C176.948 326.728 176.444 326.877 176.164 327.176C176.033 327.307 175.903 327.549 175.772 327.904C175.66 328.259 175.557 328.763 175.464 329.416C175.389 330.051 175.352 330.9 175.352 331.964C175.352 333.159 175.389 334.073 175.464 334.708C175.557 335.324 175.669 335.753 175.8 335.996C175.931 336.239 176.043 336.407 176.136 336.5C176.285 336.631 176.472 336.724 176.696 336.78C176.92 336.817 177.144 336.836 177.368 336.836ZM193.382 340.364C192.486 340.364 191.674 340.159 190.946 339.748C190.237 339.319 189.667 338.703 189.238 337.9C188.809 337.097 188.594 336.127 188.594 334.988C188.594 333.625 188.902 332.561 189.518 331.796C190.134 331.012 191.002 330.452 192.122 330.116C193.242 329.78 194.567 329.612 196.098 329.612H198.198C198.198 328.809 198.161 328.24 198.086 327.904C198.011 327.568 197.927 327.325 197.834 327.176C197.759 327.045 197.61 326.924 197.386 326.812C197.181 326.7 196.751 326.644 196.098 326.644C195.426 326.644 194.726 326.7 193.998 326.812C193.289 326.924 192.626 327.055 192.01 327.204C191.394 327.353 190.89 327.484 190.498 327.596C190.106 327.708 189.91 327.764 189.91 327.764L189.014 324.628C189.014 324.628 189.201 324.553 189.574 324.404C189.966 324.255 190.489 324.087 191.142 323.9C191.814 323.713 192.57 323.545 193.41 323.396C194.269 323.247 195.174 323.172 196.126 323.172C197.731 323.172 199.001 323.424 199.934 323.928C200.867 324.413 201.53 325.123 201.922 326.056C202.333 326.971 202.538 328.072 202.538 329.36V340H199.794L199.234 338.18H199.066C199.066 338.18 198.898 338.292 198.562 338.516C198.245 338.74 197.815 338.992 197.274 339.272C196.733 339.552 196.126 339.804 195.454 340.028C194.782 340.252 194.091 340.364 193.382 340.364ZM194.642 336.808C195.165 336.808 195.697 336.724 196.238 336.556C196.798 336.369 197.265 336.192 197.638 336.024C198.011 335.837 198.198 335.744 198.198 335.744V332.832C198.198 332.832 197.974 332.813 197.526 332.776C197.078 332.72 196.499 332.692 195.79 332.692C194.558 332.692 193.793 332.832 193.494 333.112C193.363 333.224 193.251 333.42 193.158 333.7C193.065 333.961 193.018 334.335 193.018 334.82C193.018 335.511 193.139 336.015 193.382 336.332C193.643 336.649 194.063 336.808 194.642 336.808ZM211.612 340.364C210.567 340.364 209.615 340.065 208.756 339.468C207.897 338.871 207.207 337.947 206.684 336.696C206.18 335.445 205.928 333.84 205.928 331.88C205.928 330.107 206.124 328.651 206.516 327.512C206.927 326.373 207.459 325.487 208.112 324.852C208.784 324.217 209.503 323.779 210.268 323.536C211.052 323.293 211.817 323.172 212.564 323.172C213.087 323.172 213.591 323.209 214.076 323.284C214.561 323.34 214.963 323.405 215.28 323.48C215.597 323.555 215.756 323.592 215.756 323.592V318.692H220.096V340H217.296L216.848 338.404H216.68C216.307 338.647 215.859 338.927 215.336 339.244C214.813 339.543 214.235 339.804 213.6 340.028C212.984 340.252 212.321 340.364 211.612 340.364ZM212.368 336.836C212.685 336.836 213.04 336.789 213.432 336.696C213.824 336.584 214.197 336.453 214.552 336.304C214.907 336.155 215.196 336.033 215.42 335.94C215.644 335.828 215.756 335.772 215.756 335.772V327.316C215.756 327.316 215.597 327.269 215.28 327.176C214.981 327.064 214.599 326.961 214.132 326.868C213.665 326.775 213.18 326.728 212.676 326.728C211.948 326.728 211.444 326.877 211.164 327.176C211.033 327.307 210.903 327.549 210.772 327.904C210.66 328.259 210.557 328.763 210.464 329.416C210.389 330.051 210.352 330.9 210.352 331.964C210.352 333.159 210.389 334.073 210.464 334.708C210.557 335.324 210.669 335.753 210.8 335.996C210.931 336.239 211.043 336.407 211.136 336.5C211.285 336.631 211.472 336.724 211.696 336.78C211.92 336.817 212.144 336.836 212.368 336.836ZM230.762 340.364C228.951 340.364 227.514 340.019 226.45 339.328C225.386 338.619 224.63 337.62 224.182 336.332C223.734 335.044 223.51 333.513 223.51 331.74C223.51 329.985 223.734 328.473 224.182 327.204C224.63 325.916 225.386 324.927 226.45 324.236C227.514 323.527 228.951 323.172 230.762 323.172C232.591 323.172 234.029 323.527 235.074 324.236C236.119 324.927 236.857 325.916 237.286 327.204C237.734 328.473 237.958 329.995 237.958 331.768C237.958 333.523 237.734 335.044 237.286 336.332C236.857 337.62 236.119 338.619 235.074 339.328C234.029 340.019 232.591 340.364 230.762 340.364ZM230.762 337.06C231.303 337.06 231.751 336.985 232.106 336.836C232.461 336.687 232.741 336.416 232.946 336.024C233.17 335.632 233.319 335.091 233.394 334.4C233.487 333.709 233.534 332.832 233.534 331.768C233.534 330.685 233.487 329.799 233.394 329.108C233.301 328.417 233.151 327.885 232.946 327.512C232.741 327.12 232.461 326.849 232.106 326.7C231.751 326.551 231.303 326.476 230.762 326.476C230.221 326.476 229.763 326.551 229.39 326.7C229.035 326.849 228.746 327.12 228.522 327.512C228.317 327.885 228.167 328.417 228.074 329.108C227.981 329.799 227.934 330.685 227.934 331.768C227.934 332.832 227.981 333.709 228.074 334.4C228.167 335.091 228.317 335.632 228.522 336.024C228.746 336.416 229.035 336.687 229.39 336.836C229.763 336.985 230.221 337.06 230.762 337.06ZM240.823 340V336.164H245.723V340H240.823Z" fill="white"/>
<line x1="173" y1="170.953" x2="173" y2="118" stroke="#745930" stroke-width="8"/>
</svg>
